<svg viewBox="0 0 18 18" class="" role="presentation" focusable="false" xmlns="http://www.w3.org/2000/svg" xmlns:xlink="http://www.w3.org/1999/xlink" id="FxSymbol0-01a" data-type="145"><g><path fill="#005ba1" d="M1.93 2.11 3.14.7a.59.59 0 0 1 .45-.2H15.2a.81.81 0 0 1 .89.83v14.5a.57.57 0 0 1-.2.43l-1.3 1.19H2.72l-.81-.33z"></path><path d="m2.91 2.1.74-.84A.5.5 0 0 1 4 1.08h10.89a.52.52 0 0 1 .52.52v13.78a.52.52 0 0 1-.17.39l-1.16 1.05z" class="msportalfx-svg-c01" fill="#ffffff"></path><path fill="url(#0970d28b-32c7-4d11-84d0-76d770841020)" d="M14 2.09H2a.06.06 0 0 0-.06.06v15a.39.39 0 0 0 .39.38H14a.38.38 0 0 0 .38-.38V2.48a.39.39 0 0 0-.38-.39z"></path><rect width="6.58" height="2.38" x="4.72" y="6.2" rx=".28" class="msportalfx-svg-c01" fill="#ffffff"></rect></g><defs>
<linearGradient id="0970d28b-32c7-4d11-84d0-76d770841020" x1="8.15" x2="8.15" y1="17.5" y2="2.09" gradientUnits="userSpaceOnUse"><stop offset="0" stop-color="#1988d9"></stop><stop offset=".9" stop-color="#54aef0"></stop></linearGradient>
</defs>
</svg>