<svg viewBox="0 0 18 18" class="" role="presentation" focusable="false" xmlns="http://www.w3.org/2000/svg" xmlns:xlink="http://www.w3.org/1999/xlink" id="FxSymbol0-107" data-type="1"><g><path d="M10.173 16.473a.528.528 0 0 1-.519.538H1.276a.529.529 0 0 1-.529-.529V1.494a.529.529 0 0 1 .52-.538h8.377a.528.528 0 0 1 .538.519.061.061 0 0 1 0 .019Z" fill="url(#0970d28b-32c7-4d11-84d0-76d77084117f)"></path><path d="M2.089 6.585a1.018 1.018 0 0 1 1.018-1.021h4.771a1.02 1.02 0 0 1 .992 1.02 1.02 1.02 0 0 1-1.011 1.03H3.127a1.029 1.029 0 0 1-1.038-1.02Zm0-3.041a1.03 1.03 0 0 1 1.028-1.031h4.761a1.02 1.02 0 0 1 .992 1.03 1.02 1.02 0 0 1-1.02 1.02H3.127a1.02 1.02 0 0 1-1.038-1Z" fill="#003067"></path><circle cx="3.194" cy="3.544" r=".689" fill="#50e6ff"></circle><circle cx="3.194" cy="6.585" r=".689" fill="#50e6ff"></circle><path d="M5.3 17.044h5.953a.417.417 0 0 0 .3-.124l5.578-5.639a.418.418 0 0 0-.3-.712H5.3a.418.418 0 0 0-.418.418v5.639a.418.418 0 0 0 .418.418Z" fill="url(#0970d28b-32c7-4d11-84d0-76d770841180)"></path><path opacity=".6" d="M11.375 12.487v2.405L9.297 16.1v-2.408l2.078-1.205z" class="msportalfx-svg-c01" fill="#ffffff"></path><path opacity=".9" d="m11.375 12.487-2.078 1.208-2.08-1.211 2.08-1.208 2.078 1.211z" class="msportalfx-svg-c01" fill="#ffffff"></path><path opacity=".75" d="M9.297 13.695V16.1l-2.08-1.208v-2.408l2.08 1.211z" class="msportalfx-svg-c01" fill="#ffffff"></path></g><defs>
<linearGradient id="0970d28b-32c7-4d11-84d0-76d77084117f" x1="5.465" y1="774.504" x2="5.465" y2="790.56" gradientTransform="matrix(1 0 0 -1 0 791.516)" gradientUnits="userSpaceOnUse"><stop offset="0" stop-color="#005ba1"></stop><stop offset="1" stop-color="#0078d4"></stop></linearGradient>
<linearGradient id="0970d28b-32c7-4d11-84d0-76d770841180" x1="11.069" y1="17.044" x2="11.069" y2="10.569" gradientUnits="userSpaceOnUse"><stop offset="0" stop-color="#32bedd"></stop><stop offset=".302" stop-color="#36c3e1"></stop><stop offset=".66" stop-color="#41d1ee"></stop><stop offset="1" stop-color="#50e6ff"></stop></linearGradient>
</defs>
</svg>