<svg viewBox="0 0 115 115" class="" role="presentation" focusable="false" xmlns="http://www.w3.org/2000/svg" xmlns:xlink="http://www.w3.org/1999/xlink" id="FxSymbol0-112" data-type="1"><g><path d="M53.482 26.686s-.028.116-.064.313c-.333.1-.665.188-1 .3-.461.141-.914.309-1.375.473s-.914.353-1.363.554A27.724 27.724 0 0 0 47 29.641c-.85.477-1.688 1-2.5 1.571l-.209-.1a20.719 20.719 0 0 0-15.691.645 22.737 22.737 0 0 0 4.109 15.424c-.2.545-.381 1.1-.549 1.655a38.5 38.5 0 0 0-1.36 6.19c-.04.3-.076.614-.113.922a20.565 20.565 0 0 0-9.954 11.567c6.41 7.373 13.883 7.83 13.883 7.83s.012-.012.02-.016a32.858 32.858 0 0 0 3.288 4.815 31.954 31.954 0 0 0 1.628 1.828 17.262 17.262 0 0 0 .328 12.244 19.925 19.925 0 0 0 12.81-3.9c.709.24 1.431.453 2.156.641a32.368 32.368 0 0 0 6.684.994c.561.024 1.122.036 1.68.032h.449l.352-.012.349-.016.008.012c3.36 4.8 9.273 5.473 9.273 5.473 4.205-4.44 4.445-8.84 4.445-9.791v-.197c0-.068 0-.132-.012-.2a27.1 27.1 0 0 0 2.522-2 26.2 26.2 0 0 0 4.374-5.127c.116-.177.229-.353.337-.534a11.762 11.762 0 0 0 8.114-2.946 12.371 12.371 0 0 0-4.2-7.834s-.024-.02-.06-.044-.057-.04-.057-.04a3.921 3.921 0 0 0-.1-.069 27.667 27.667 0 0 0 .125-2.494v-.836L89.087 65l-.024-.449c-.008-.156-.02-.289-.032-.429s-.024-.277-.04-.413l-.048-.413-.056-.409a19.503 19.503 0 0 0-.309-1.619 20.532 20.532 0 0 0-6.45-10.789 20.262 20.262 0 0 0-5.092-3.279 19.959 19.959 0 0 0-8.459-1.744l-.349.008h-.209l-.144.008-.349.024a17.097 17.097 0 0 0-1.816.232 15.869 15.869 0 0 0-9.273 5.417 15.665 15.665 0 0 0-2.562 4.321 15.327 15.327 0 0 0-1.018 4.634 13.55 13.55 0 0 0-.024 1.138c0 .093 0 .189.008.281l.012.3c.012.184.028.365.044.545a12.3 12.3 0 0 0 .425 2.233 11.924 11.924 0 0 0 4.731 6.547 11.6 11.6 0 0 0 3.247 1.547 11.319 11.319 0 0 0 3.228.461c.128 0 .256 0 .384-.008.069 0 .137-.008.2-.008l.2-.012c.109-.012.221-.02.329-.033.024 0 .06-.008.092-.012l.1-.012c.068-.008.132-.02.2-.028.136-.016.253-.044.373-.064s.24-.048.361-.08c.236-.052.465-.124.693-.192a8.993 8.993 0 0 0 1.263-.53 9.1 9.1 0 0 0 1.091-.665c.1-.068.188-.14.28-.213a.818.818 0 0 0-.9-1.359 5.329 5.329 0 0 1-.26.137 7.69 7.69 0 0 1-.947.388 8.158 8.158 0 0 1-1.038.257c-.18.024-.361.052-.545.068a2.165 2.165 0 0 1-.281.016c-.092 0-.192.012-.276.008s-.177 0-.269 0c-.112 0-.225-.012-.337-.016h-.048l-.076-.008c-.052 0-.1-.008-.152-.016-.1-.012-.2-.024-.3-.04a8.775 8.775 0 0 1-2.41-.706 8.649 8.649 0 0 1-2.225-1.459 8.45 8.45 0 0 1-1.74-2.181 8.179 8.179 0 0 1-1.038-4.2c.008-.137.012-.269.02-.405v-.072l.008-.1c0-.068.012-.132.02-.2.028-.265.068-.533.116-.794a10.486 10.486 0 0 1 4.386-6.815 10.243 10.243 0 0 1 1.492-.85 10.481 10.481 0 0 1 1.623-.59 10.239 10.239 0 0 1 1.712-.3c.289-.024.582-.037.874-.037h.2l.236.009h.237l.236.016a13.358 13.358 0 0 1 5.441 1.631 13.108 13.108 0 0 1 5.347 5.535 12.666 12.666 0 0 1 1.211 3.724c.048.325.088.654.116.983l.02.248.012.249c0 .084 0 .164.008.248s0 .173 0 .233v.453l-.028.581c-.028.357-.056.718-.1 1.075s-.105.7-.169 1.058-.144.7-.236 1.042a16.5 16.5 0 0 1-.658 2.037 16.986 16.986 0 0 1-8.712 9.189 16.732 16.732 0 0 1-4.136 1.268 16.281 16.281 0 0 1-2.157.216h-1.098a22.255 22.255 0 0 1-1.159-.056 22.088 22.088 0 0 1-4.55-.822 22.385 22.385 0 0 1-11.314-7.562 22.688 22.688 0 0 1-2.478-3.829 22.423 22.423 0 0 1-1.631-4.213 22.092 22.092 0 0 1-.742-4.422l-.016-.281v-.255l-.008-.245v-.891c0-.18.008-.365.012-.545.028-.738.088-1.5.184-2.253s.221-1.52.377-2.278.341-1.5.549-2.237a29.527 29.527 0 0 1 1.568-4.245A23.482 23.482 0 0 1 48.9 40.69a20.369 20.369 0 0 1 1.527-1.359c.53-.425 1.079-.818 1.644-1.187a19.177 19.177 0 0 1 1.74-1.022c.3-.161.6-.3.906-.449l.461-.2a23.629 23.629 0 0 1 2.365-.894c.164-.048.324-.1.485-.148s.328-.088.489-.137c.325-.092.657-.168.986-.252.164-.044.333-.072.5-.108s.333-.073.5-.1.337-.06.5-.092l.253-.044.253-.04c.168-.024.336-.052.505-.076.188-.032.381-.048.569-.076.156-.02.409-.048.565-.069l.357-.036.237-.024.12-.012.14-.008.574-.036.284-.02h.193l.489-.024c.649-.02 1.3-.02 1.932 0a26.8 26.8 0 0 1 3.753.417 26.208 26.208 0 0 1 6.815 2.265 27.5 27.5 0 0 1 5.565 3.628c.1.085.2.173.3.257s.2.172.292.261c.2.172.385.352.574.525s.368.357.553.533.357.357.529.541a31.645 31.645 0 0 1 1.9 2.2 28.727 28.727 0 0 1 2.8 4.382c.048.088.092.177.136.265s.088.176.128.264c.085.173.173.345.249.518s.16.34.236.509.145.337.217.5A30.708 30.708 0 0 1 93.02 55.8a.631.631 0 0 0 1.243-.14 27.013 27.013 0 0 0-.9-7.433 28.615 28.615 0 0 0-2.069-5.5 30.085 30.085 0 0 0-5.949-8.138 11.631 11.631 0 0 0-1.367-8.339 12.348 12.348 0 0 0-8.045 2.05 29.26 29.26 0 0 0-2.77-1.035 31.748 31.748 0 0 0-2.369-.657 32.475 32.475 0 0 0-2.911-.542 14.944 14.944 0 0 0-7.252-8.5 15.871 15.871 0 0 0-7.149 9.117" fill="url(#0970d28b-32c7-4d11-84d0-76d77084118c)"></path></g><defs>
<linearGradient id="0970d28b-32c7-4d11-84d0-76d77084118c" x1="57.5" y1="17.382" x2="57.5" y2="99.76" gradientUnits="userSpaceOnUse"><stop offset=".18" stop-color="#5ea0ef"></stop><stop offset="1" stop-color="#0078d4"></stop></linearGradient>
</defs>
</svg>