<svg viewBox="0 0 18 18" class="" role="presentation" focusable="false" xmlns="http://www.w3.org/2000/svg" xmlns:xlink="http://www.w3.org/1999/xlink" id="FxSymbol0-108" data-type="1"><g><title></title><path fill="#32bedd" d="M11.189 4.827v2.688l-2.323 1.35V6.174l2.323-1.347z"></path><path fill="#9cebff" d="m11.189 4.827-2.323 1.35-2.325-1.353 2.325-1.35 2.323 1.353z"></path><path fill="#50e6ff" d="M8.866 6.177v2.688l-2.325-1.35V4.824l2.325 1.353z"></path><path fill="#32bedd" d="M8.42 9.603v2.687l-2.322 1.35v-2.691L8.42 9.603z"></path><path fill="#9cebff" d="m8.42 9.603-2.322 1.35-2.325-1.354 2.325-1.35L8.42 9.603z"></path><path fill="#50e6ff" d="M6.098 10.953v2.687l-2.325-1.35V9.599l2.325 1.354z"></path><path fill="#32bedd" d="M14.045 9.611v2.687l-2.322 1.35v-2.691l2.322-1.346z"></path><path fill="#9cebff" d="m14.045 9.611-2.322 1.35-2.326-1.354 2.326-1.35 2.322 1.354z"></path><path fill="#50e6ff" d="M11.723 10.961v2.687l-2.326-1.35V9.607l2.326 1.354z"></path><path d="m9.607.519.536.3.217.12a.288.288 0 0 1 .01.5l-.213.128-.647.391a7.057 7.057 0 0 1 5.137 11.281.158.158 0 0 0-.023.047l-.268 1a.287.287 0 0 0 .352.352l.8-.214a.138.138 0 0 0 .075-.048A8.493 8.493 0 0 0 9.607.519Z" fill="#005ba1"></path><path d="m14.339 15.178-.241.064a.287.287 0 0 1-.351-.352l.064-.24.178-.663a7.06 7.06 0 0 1-10.86-1.069.138.138 0 0 0-.052-.047l-.7-.357a.288.288 0 0 0-.418.271l.051 1a.155.155 0 0 0 .027.077 8.561 8.561 0 0 0 1.206 1.379A8.48 8.48 0 0 0 15.009 15Z" fill="#0ff"></path><path d="m1.506 12.31-.013-.249a.287.287 0 0 1 .418-.27l.221.113.575.294A7.062 7.062 0 0 1 8.662 1.941a.137.137 0 0 0 .065-.02l.782-.472a.287.287 0 0 0-.01-.5L8.722.523a.151.151 0 0 0-.077-.018 8.493 8.493 0 0 0-7.1 12.565Z" fill="#32bedd"></path></g><defs>
</defs>
</svg>