<svg viewBox="0 0 28 28" class="" role="presentation" focusable="false" xmlns="http://www.w3.org/2000/svg" xmlns:xlink="http://www.w3.org/1999/xlink" id="FxSymbol0-110" data-type="1"><g><title></title><path d="M27.222 14.125a5.942 5.942 0 0 0-5.164-5.71 7.482 7.482 0 0 0-7.7-7.17 7.778 7.778 0 0 0-7.39 4.977 7.062 7.062 0 0 0-6.221 6.83 7.187 7.187 0 0 0 7.45 6.906c.218.015.437.015.654 0h12.056a.996.996 0 0 0 .31 0 6.005 6.005 0 0 0 6.005-5.833Z" fill="url(#0970d28b-32c7-4d11-84d0-76d770841188)"></path><path d="M23.038 26.755H8.042c-.482 0-.762-.762-.498-1.166l5.165-7.53a.53.53 0 0 0 .109-.341V12.74a.311.311 0 0 0-.296-.296h-.28a.591.591 0 0 1-.591-.59v-.265a.59.59 0 0 1 .591-.591h6.58a.59.59 0 0 1 .591.59v.265a.591.591 0 0 1-.59.591h-.28a.296.296 0 0 0-.296.296v4.993a.56.56 0 0 0 .108.342l5.165 7.514c.264.389-.016 1.166-.482 1.166Z" fill="url(#0970d28b-32c7-4d11-84d0-76d770841189)"></path><path d="m9.769 24.733 3.92-5.724c.183-.232.291-.514.31-.809v-2.302a.451.451 0 0 1 .452-.451h2.24a.451.451 0 0 1 .451.45v2.459c0 .194.06.384.171.544l4.014 5.833a.36.36 0 0 1-.28.545h-10.89a.342.342 0 0 1-.388-.545Z" class="msportalfx-svg-c01" fill="#ffffff"></path><defs></defs></g><defs>
<linearGradient id="0970d28b-32c7-4d11-84d0-76d770841188" x1="14" y1="25.496" x2="14" y2="-3.018" gradientUnits="userSpaceOnUse"><stop stop-color="#0078D4"></stop><stop offset=".16" stop-color="#1380DA"></stop><stop offset=".53" stop-color="#3C91E5"></stop><stop offset=".82" stop-color="#559CEC"></stop><stop offset="1" stop-color="#5EA0EF"></stop></linearGradient>
<linearGradient id="0970d28b-32c7-4d11-84d0-76d770841189" x1="15.369" y1="11.06" x2="15.54" y2="26.864" gradientUnits="userSpaceOnUse"><stop stop-color="#32D4F5"></stop><stop offset=".32" stop-color="#31D1F3"></stop><stop offset=".53" stop-color="#2EC9EB"></stop><stop offset=".7" stop-color="#29BADE"></stop><stop offset=".86" stop-color="#22A5CB"></stop><stop offset="1" stop-color="#198AB3"></stop></linearGradient>
</defs>
</svg>