<svg viewBox="0 0 115 115" class="" role="presentation" focusable="false" xmlns="http://www.w3.org/2000/svg" xmlns:xlink="http://www.w3.org/1999/xlink" id="FxSymbol0-0b4" data-type="1"><g><title></title><title>atlasicon</title><path d="M92.704 102.91c-25.07 19.5-61.117 14.912-80.615-10.16C-7.41 67.678-2.821 31.626 22.248 12.126c.163-.164.327-.328.655-.492 25.233-19.173 61.28-14.093 80.451 11.143 19.007 25.236 14.255 60.796-10.65 80.133Z" fill="url(#0970d28b-32c7-4d11-84d0-76d77084110a)"></path><path d="M66.651 15.403 23.886 83.41l53.58-20.811L66.65 15.403Z" fill="#9CEBFF"></path><path opacity=".7" d="M57.967 29.168 84.511 93.57l-17.86-78.166-8.684 13.765Z" class="msportalfx-svg-c01" fill="#ffffff"></path><path d="m56.492 70.791 16.058-6.227 11.96 29.169L56.492 70.79Z" fill="#32BEDD"></path><defs></defs></g><defs>
<linearGradient id="0970d28b-32c7-4d11-84d0-76d77084110a" x1="57.859" y1="115.398" x2="57.859" y2=".564" gradientUnits="userSpaceOnUse"><stop stop-color="#198AB3"></stop><stop offset=".442" stop-color="#28B7DB"></stop><stop offset=".775" stop-color="#32D4F5"></stop></linearGradient>
</defs>
</svg>