<svg viewBox="0 0 50 50" class="" role="presentation" focusable="false" xmlns="http://www.w3.org/2000/svg" xmlns:xlink="http://www.w3.org/1999/xlink" id="FxSymbol0-121" data-type="1"><g><title></title><circle cx="18.001" cy="3.001" r="2.949" class="msportalfx-svg-c10" fill="#ff8c00"></circle><circle cx="3.001" cy="25.001" r="2.949" class="msportalfx-svg-c10" fill="#ff8c00"></circle><circle cx="4.001" cy="15.001" r="2.949" class="msportalfx-svg-c10" fill="#ff8c00"></circle><circle cx="9.001" cy="7.001" r="2.949" class="msportalfx-svg-c10" fill="#ff8c00"></circle><circle opacity=".2" cx="18.001" cy="3.001" r="2.949" class="msportalfx-svg-c14" fill="#57a300"></circle><circle opacity=".2" cx="3.001" cy="25.001" r="2.949" class="msportalfx-svg-c14" fill="#57a300"></circle><circle opacity=".2" cx="4.001" cy="15.001" r="2.949" class="msportalfx-svg-c14" fill="#57a300"></circle><circle opacity=".2" cx="9.001" cy="7.001" r="2.949" class="msportalfx-svg-c14" fill="#57a300"></circle><circle cx="25" cy="11.001" r="2.25" class="msportalfx-svg-c14" fill="#57a300"></circle><circle cx="25" cy="39.001" r="2.25" class="msportalfx-svg-c14" fill="#57a300"></circle><path d="M32.897 29.511c0 3.39-3.362 5.851-7.995 5.851-4.073 0-6.627-1.535-7.798-4.691l3.977-.749c.515 1.111 1.651 2.38 4.153 2.38 2.504 0 3.437-1.504 3.437-2.451 0-1.971-2.377-2.654-3.399-2.857-4.341-.861-7.414-1.854-7.414-6.825 0-4.081 3.795-5.529 7.044-5.529 3.554 0 5.866 1.175 7.061 3.591l-3.436 1.091c-.721-1.229-1.951-1.878-3.565-1.878-2.357 0-2.98 1.625-2.98 2.484 0 1.183 1.18 2.221 3.006 2.645 2.29.531 3.898.939 4.836 1.335 1.485.624 3.073 2.424 3.073 5.603" class="msportalfx-svg-c14" fill="#57a300"></path><path d="M46.432 14.49C42.345 6.386 33.644 1.283 25 .93v3.828c7.215.344 14.61 4.702 18.016 11.455 4.989 9.89 1.001 21.995-8.889 26.984-8.71 4.393-19.801 1.358-25.699-6.157l-3.159 2.246c6.98 9.045 20.142 12.594 30.581 7.328 11.793-5.949 16.531-20.331 10.582-32.124z" class="msportalfx-svg-c14" fill="#57a300"></path><path d="m2.563 43.65 1.013-11.999 10.513 3.804z" class="msportalfx-svg-c14" fill="#57a300"></path></g><defs>
</defs>
</svg>