<svg viewBox="0 0 50 50" class="" role="presentation" focusable="false" xmlns="http://www.w3.org/2000/svg" xmlns:xlink="http://www.w3.org/1999/xlink" id="FxSymbol0-12c" data-type="1"><g><title></title><path d="M43.375 0H6.282C2.614-.02 0 2.188 0 5.839v26.218c0 3.706 2.664 6.985 6.336 7.029L19.021 39l12.013 11V39l12.238.142c3.665.03 6.671-2.933 6.671-6.594L50 6.231C50.025 2.59 47.045 0 43.375 0" class="msportalfx-svg-c14" fill="#57a300"></path><circle opacity=".9" cx="25" cy="5" r="2.463" class="msportalfx-svg-c01" fill="#ffffff"></circle><circle opacity=".9" cx="25" cy="35" r="2.463" class="msportalfx-svg-c01" fill="#ffffff"></circle><path opacity=".9" d="M33.393 24.794c0 3.603-3.574 6.219-8.498 6.219-4.33 0-7.044-1.631-8.289-4.986l4.227-.796c.547 1.181 1.755 2.53 4.415 2.53 2.661 0 3.653-1.598 3.653-2.605 0-2.095-2.527-2.821-3.613-3.036-4.614-.915-7.88-1.971-7.88-7.254 0-4.338 4.033-5.877 7.487-5.877 3.778 0 6.235 1.249 7.506 3.817l-3.652 1.159c-.766-1.306-2.073-1.996-3.79-1.996-2.505 0-3.167 1.727-3.167 2.64 0 1.258 1.254 2.36 3.195 2.811 2.434.564 4.143.998 5.14 1.418 1.579.664 3.266 2.577 3.266 5.956" class="msportalfx-svg-c01" fill="#ffffff"></path></g><defs>
</defs>
</svg>