<svg viewBox="0 0 50 50" class="" role="presentation" focusable="false" xmlns="http://www.w3.org/2000/svg" xmlns:xlink="http://www.w3.org/1999/xlink" id="FxSymbol0-12d" data-type="1"><g><title></title><circle cx="15" cy="5" r="3.279" class="msportalfx-svg-c14" fill="#57a300"></circle><circle cx="15" cy="44" r="3.279" class="msportalfx-svg-c14" fill="#57a300"></circle><path d="M26.56 30.882c0 4.797-4.758 8.279-11.314 8.279-5.764 0-9.378-2.172-11.035-6.638l5.627-1.06c.728 1.573 2.336 3.368 5.878 3.368 3.543 0 4.864-2.128 4.864-3.469 0-2.789-3.364-3.756-4.81-4.042-6.143-1.219-10.491-2.624-10.491-9.658 0-5.775 5.37-7.825 9.968-7.825 5.03 0 8.301 1.663 9.993 5.082l-4.862 1.544c-1.02-1.739-2.761-2.658-5.045-2.658-3.335 0-4.217 2.299-4.217 3.515 0 1.674 1.67 3.143 4.253 3.742 3.241.751 5.516 1.329 6.844 1.888 2.101.886 4.347 3.434 4.347 7.932" class="msportalfx-svg-c14" fill="#57a300"></path><path fill="#7A7B7B" d="M43.893 48.9c-.536 0-1.04-.209-1.419-.588l-7.813-7.81 2.842-2.843 7.812 7.813a2.01 2.01 0 0 1-1.422 3.428z"></path><path opacity=".4" fill="#1D1D1D" d="m35.457 41.299 2.842-2.842 1.767 1.767a10.85 10.85 0 0 1-2.842 2.842l-1.767-1.767z"></path><circle cx="27.993" cy="30.993" r="10.418" class="msportalfx-svg-c01" fill="#ffffff"></circle><path d="M19.053 26.775c1.603.738 3.646 2.489 3.646 4.579 0 1.186-1.363 3.562-3.468 4.407.623 1.803 2.131 3.424 3.438 4.757 4.477-1.619 6.847-5.437 6.847-9.553 0-5.503-3.249-8.62-5.821-9.702-.207-.087-3.87 2.905-4.642 5.512z" class="msportalfx-svg-c13" fill="#b8d432"></path><path d="M27.993 22.441c4.715 0 8.552 3.836 8.552 8.552s-3.836 8.552-8.552 8.552-8.552-3.836-8.552-8.552 3.836-8.552 8.552-8.552m0-1c-5.275 0-9.552 4.276-9.552 9.552s4.276 9.552 9.552 9.552 9.552-4.276 9.552-9.552-4.277-9.552-9.552-9.552z" opacity=".5" class="msportalfx-svg-c01" fill="#ffffff"></path><path fill="#7A7B7B" d="M15.1 31c0 7.125 5.775 12.9 12.9 12.9S40.9 38.125 40.9 31 35.125 18.1 28 18.1 15.1 23.875 15.1 31zm3.341 0c0-5.279 4.279-9.559 9.559-9.559S37.559 25.72 37.559 31 33.28 40.559 28 40.559s-9.559-4.28-9.559-9.559z"></path></g><defs>
</defs>
</svg>