<svg viewBox="0 0 16 18" class="" role="presentation" focusable="false" xmlns="http://www.w3.org/2000/svg" xmlns:xlink="http://www.w3.org/1999/xlink" id="FxSymbol0-12f" data-type="1"><g><title></title><path d="M7.76 5.14a1.361 1.361 0 1 0 0-2.723 1.361 1.361 0 0 0 0 2.722Zm.101 9.459a1.361 1.361 0 1 0 0-2.723 1.361 1.361 0 0 0 0 2.723Z" class="msportalfx-svg-c14" fill="#57a300"></path><path d="M4.424 13.918h-.646A3.79 3.79 0 0 1 0 10.142v-3.3a3.95 3.95 0 0 1 3.744-3.779h1.02a.612.612 0 0 1 0 1.225h-.986a2.63 2.63 0 0 0-2.52 2.519v3.3a2.51 2.51 0 0 0 2.52 2.52h.646a.611.611 0 0 1 .612.612.628.628 0 0 1-.612.68Z" class="msportalfx-svg-c15" fill="#59b4d9"></path><path d="M12.217 13.92H10.89a.612.612 0 1 1 0-1.226h1.327a2.51 2.51 0 0 0 2.52-2.518V6.875a2.509 2.509 0 0 0-2.52-2.519h-.987a.612.612 0 0 1 0-1.225h.987A3.79 3.79 0 0 1 16 6.91v3.3a3.754 3.754 0 0 1-3.783 3.71Z" class="msportalfx-svg-c17" fill="#804998"></path><path d="M7.694 7.555a3.792 3.792 0 0 1-2.655-1.089.626.626 0 1 1 .885-.884 2.503 2.503 0 0 0 3.537-3.54 2.53 2.53 0 0 0-1.767-.749 2.472 2.472 0 0 0-1.77.749.638.638 0 0 1-.885 0 .638.638 0 0 1 0-.885A3.664 3.664 0 0 1 7.694 0a3.815 3.815 0 0 1 2.654 1.09 3.8 3.8 0 0 1 0 5.342 3.629 3.629 0 0 1-2.654 1.123Z" class="msportalfx-svg-c20" fill="#68217a"></path><path d="M7.828 17.017a3.76 3.76 0 0 1-2.654-6.432 3.732 3.732 0 0 1 2.654-1.09 3.815 3.815 0 0 1 2.655 1.09.625.625 0 1 1-.885.884 2.52 2.52 0 1 0 0 3.539.626.626 0 0 1 .885.884 3.65 3.65 0 0 1-2.655 1.125Z" class="msportalfx-svg-c19" fill="#0072c6"></path></g><defs>
</defs>
</svg>