<svg viewBox="0 0 477 143" class="" role="presentation" focusable="false" xmlns="http://www.w3.org/2000/svg" xmlns:xlink="http://www.w3.org/1999/xlink" id="FxSymbol0-1ad" data-type="1"><g><path d="m75.5 63.5-5-4.5v2H53.564a7.49 7.49 0 0 0-14.128 0H19v5h20.436a7.49 7.49 0 0 0 14.128 0H70.5v2Z" fill="#adf1d1"></path><circle cx="258" cy="66" r="16" fill="#cdf3ff"></circle><path d="M14 57.07v15.86a.561.561 0 0 1-.56.57H4.57a.555.555 0 0 1-.22-.041.558.558 0 0 1-.309-.309.573.573 0 0 1-.041-.22V57.07a.573.573 0 0 1 .041-.22.554.554 0 0 1 .123-.186.564.564 0 0 1 .186-.123.555.555 0 0 1 .22-.041h8.86a.562.562 0 0 1 .406.164.552.552 0 0 1 .164.406Z" fill="url(#0970d28b-32c7-4d11-84d0-76d7708412b7)"></path><path d="M5.33 58.27H7a.14.14 0 0 1 .14.14v2.1a.14.14 0 0 1-.14.14H5.33a.151.151 0 0 1-.1-.04.157.157 0 0 1-.047-.1v-2.1a.157.157 0 0 1 .047-.1.151.151 0 0 1 .1-.04Zm2.86 0h1.62a.14.14 0 0 1 .14.14v2.1a.14.14 0 0 1-.14.14H8.19a.147.147 0 0 1-.1-.041.137.137 0 0 1-.03-.045.145.145 0 0 1-.011-.054v-2.1a.145.145 0 0 1 .011-.054.148.148 0 0 1 .03-.045.147.147 0 0 1 .1-.041Zm2.86 0h1.62a.151.151 0 0 1 .1.04.147.147 0 0 1 .047.1v2.1a.147.147 0 0 1-.047.1.151.151 0 0 1-.1.04h-1.62a.14.14 0 0 1-.14-.14v-2.1a.14.14 0 0 1 .14-.14Zm-5.72 3.81H7a.14.14 0 0 1 .14.14v2.1a.149.149 0 0 1-.14.15H5.33a.156.156 0 0 1-.057-.011.163.163 0 0 1-.049-.033.134.134 0 0 1-.032-.049.139.139 0 0 1-.012-.057v-2.1a.157.157 0 0 1 .047-.1.151.151 0 0 1 .103-.04Zm2.86 0h1.62a.14.14 0 0 1 .14.14v2.1a.149.149 0 0 1-.14.15H8.19a.15.15 0 0 1-.1-.047.152.152 0 0 1-.041-.1v-2.1a.145.145 0 0 1 .011-.054.148.148 0 0 1 .03-.045.147.147 0 0 1 .1-.041Zm2.86 0h1.62a.151.151 0 0 1 .1.04.147.147 0 0 1 .047.1v2.1a.15.15 0 0 1-.15.15H11.05a.152.152 0 0 1-.1-.047.156.156 0 0 1-.04-.1v-2.1a.14.14 0 0 1 .14-.14ZM5.33 65.9H7a.14.14 0 0 1 .14.14v2.1a.144.144 0 0 1-.01.054.157.157 0 0 1-.031.045.137.137 0 0 1-.045.03.141.141 0 0 1-.054.011H5.33a.151.151 0 0 1-.1-.04.157.157 0 0 1-.047-.1V66a.149.149 0 0 1 .058-.075.153.153 0 0 1 .089-.025Zm2.86 0h1.62a.138.138 0 0 1 .06-.01.141.141 0 0 1 .059.016.143.143 0 0 1 .046.039A.138.138 0 0 1 10 66v2.1a.14.14 0 0 1-.14.14H8.19a.147.147 0 0 1-.1-.041.137.137 0 0 1-.03-.045.145.145 0 0 1-.01-.054V66a.141.141 0 0 1 .14-.1Zm0 3.81h1.62a.14.14 0 0 1 .14.14V73a.14.14 0 0 1-.14.14H8.19a.14.14 0 0 1-.14-.14v-3.15a.14.14 0 0 1 .14-.14Zm2.86-3.81h1.62a.151.151 0 0 1 .1.04.147.147 0 0 1 .047.1v2.1a.147.147 0 0 1-.047.1.151.151 0 0 1-.1.04h-1.62a.147.147 0 0 1-.1-.041.137.137 0 0 1-.03-.045.145.145 0 0 1-.011-.054V66a.141.141 0 0 1 .14-.1Z" fill="#f2f2f2"></path><path d="M213 112h-4v-2h4Zm-8 0h-4v-2h4Zm-8 0h-4v-2h4Zm-8 0h-4v-2h4Zm-8 0h-4v-2h4Zm-8 0h-4v-2h4Zm-8 0h-4v-2h4Zm-8 0h-4v-2h4Zm-8 0h-4v-2h4Zm-8 0h-4v-2h4Zm-8 0h-4v-2h4Zm-8 0h-4v-2h4Zm-8 0h-4v-2h4Zm-8 0h-4v-2h4Zm-8 0h-4v-2h4Zm-8 0h-4v-2h4Zm121-5h-2v-4h2Zm-124 0h-2v-4h2Zm124-8h-2v-4h2ZM90 99h-2v-4h2Zm124-8h-2v-4h2ZM90 91h-2v-4h2Zm124-8h-2v-4h2ZM90 83h-2v-4h2Zm124-8h-2v-4h2ZM90 75h-2v-4h2Zm124-8h-2v-4h2ZM90 67h-2v-4h2Zm124-8h-2v-4h2ZM90 59h-2v-4h2Zm124-8h-2v-4h2ZM90 51h-2v-4h2Zm124-8h-2v-4h2ZM90 43h-2v-4h2Zm124-8h-2v-4h2ZM90 35h-2v-4h2Zm124-8h-2v-4h2ZM90 27h-2v-4h2Zm124-8h-2v-4h2ZM90 19h-2v-4h2Zm123-7h-4v-2h4Zm-8 0h-4v-2h4Zm-8 0h-4v-2h4Zm-8 0h-4v-2h4Zm-8 0h-4v-2h4Zm-8 0h-4v-2h4Zm-8 0h-4v-2h4Zm-8 0h-4v-2h4Zm-8 0h-4v-2h4Zm-8 0h-4v-2h4Zm-8 0h-4v-2h4Zm-8 0h-4v-2h4Zm-8 0h-4v-2h4Zm-8 0h-4v-2h4Zm-8 0h-4v-2h4Zm-8 0h-4v-2h4Z" fill="#d1d1d1"></path><path d="M257.513 62.878h-2a2.5 2.5 0 0 0-.387 4.957 2.666 2.666 0 0 1 .029-.93 1.575 1.575 0 0 1 .362-3.111h2a1.58 1.58 0 0 1 0 3.16h-.553a1.175 1.175 0 0 0-.111.5 1.134 1.134 0 0 0 .078.416h.586a2.5 2.5 0 1 0 0-4.99Z" fill="url(#0970d28b-32c7-4d11-84d0-76d7708412b8)"></path><path d="M260.394 64.99a2.894 2.894 0 0 1 .029.384 2.548 2.548 0 0 1-.054.544 1.575 1.575 0 0 1-.361 3.111h-2a1.58 1.58 0 1 1 0-3.16h.549a1.176 1.176 0 0 0 .111-.5 1.139 1.139 0 0 0-.079-.416h-.578a2.5 2.5 0 0 0 0 4.99h2a2.5 2.5 0 0 0 .387-4.957Z" fill="url(#0970d28b-32c7-4d11-84d0-76d7708412b9)"></path><path d="m254.17 71-.458.462a.311.311 0 0 1-.222.092.31.31 0 0 1-.12-.024.32.32 0 0 1-.1-.068l-5.116-5.108a.631.631 0 0 1 0-.889l.463-.453 5.555 5.548a.289.289 0 0 1 .067.1.318.318 0 0 1 .023.118.322.322 0 0 1-.023.118.289.289 0 0 1-.067.1Z" fill="#50e6ff"></path><path d="m253.617 60.434.511.511a.3.3 0 0 1 .068.1.312.312 0 0 1 0 .24.3.3 0 0 1-.068.1l-5.463 5.477-.513-.507a.631.631 0 0 1 0-.889l5.024-5.036a.313.313 0 0 1 .441 0Z" fill="#1490df"></path><path d="M261.767 71.357a.3.3 0 0 1-.094-.216.321.321 0 0 1 .022-.118.3.3 0 0 1 .065-.1h.007l5.555-5.543.462.461a.629.629 0 0 1 0 .889l-5.123 5.1a.3.3 0 0 1-.1.068.317.317 0 0 1-.118.026.321.321 0 0 1-.118-.022.314.314 0 0 1-.1-.065l-.007-.006Z" fill="#50e6ff"></path><path d="m262.76 60.8 5.028 5.04a.627.627 0 0 1 0 .881l-.512.511-5.468-5.48a.319.319 0 0 1 0-.444l.511-.508a.313.313 0 0 1 .441 0Z" fill="#1490df"></path><path d="m46.486 62.079-.667-.385-1.847 3.2.667.385Zm.671-.325-.667.385 1.847 3.2.663-.386Z" fill="#a67af4"></path><path d="M48.3 66.106v-.77h-3.69v.77Z" fill="#773adc"></path><path d="M46.527 62.158a.937.937 0 1 0-.937-.937.936.936 0 0 0 .937.937Z" fill="url(#0970d28b-32c7-4d11-84d0-76d7708412ba)"></path><path d="M49.063 66.716a.937.937 0 1 0-.938-.937.937.937 0 0 0 .938.937Z" fill="url(#0970d28b-32c7-4d11-84d0-76d7708412bb)"></path><path d="M43.937 66.716a.937.937 0 1 0-.937-.937.936.936 0 0 0 .937.937Z" fill="url(#0970d28b-32c7-4d11-84d0-76d7708412bc)"></path><circle cx="171" cy="65" r="16" fill="#cdf3ff"></circle><path d="M123.56 31.89h-9.43a.34.34 0 0 0-.34.34v6.07a.34.34 0 0 0 .34.34h9.43a.34.34 0 0 0 .34-.34v-6.07a.34.34 0 0 0-.34-.34Z" fill="#005ba1"></path><path d="M120.53 34.28v1.97l-1.68.98v-1.96Z" fill="#50e6ff"></path><path d="m120.53 34.28-1.68.99-1.69-.99 1.69-.99Z" fill="#c3f1ff"></path><path d="M118.85 35.27v1.96l-1.69-.98v-1.97Z" fill="#9cebff"></path><path d="M127.53 35.76h-9.43a.34.34 0 0 0-.34.34v6.07a.34.34 0 0 0 .34.34h9.43a.34.34 0 0 0 .34-.34V36.1a.34.34 0 0 0-.34-.34Z" fill="#0078d4"></path><path d="M124.5 38.16v1.96l-1.68.99v-1.97Z" fill="#50e6ff"></path><path d="m124.5 38.16-1.68.98-1.69-.98 1.69-.99Z" fill="#c3f1ff"></path><path d="M122.82 39.14v1.97l-1.69-.99v-1.96Z" fill="#9cebff"></path><path d="M130.45 39.52h-9.43a.34.34 0 0 0-.34.34v6.07a.34.34 0 0 0 .34.34h9.43a.34.34 0 0 0 .34-.34v-6.07a.34.34 0 0 0-.34-.34Z" fill="url(#0970d28b-32c7-4d11-84d0-76d7708412bd)"></path><path d="M127.42 41.92v1.96l-1.68.99V42.9Z" fill="#50e6ff"></path><path d="m127.42 41.92-1.68.99-1.69-.99 1.69-.99Z" fill="#c3f1ff"></path><path d="M125.74 42.91v1.96l-1.69-.99v-1.96Z" fill="#9cebff"></path><path d="m124.05 43.88 1.69-.98v1.97Z" fill="#c3f1ff"></path><path d="m127.42 43.88-1.68-.98v1.97Z" fill="#9cebff"></path><path d="M127.76 48.32c-1-.16-1-.88-1-2h-2c0 1.16 0 1.88-1 2a.589.589 0 0 0-.5.57h5a.592.592 0 0 0-.5-.57Z" fill="url(#0970d28b-32c7-4d11-84d0-76d7708412be)"></path><path fill="#5398c2" d="m166.908 71.976-5.075-5.075 5.086-4.874 1.038 1.083-3.98 3.814 3.991 3.992-1.06 1.06zm8.983.011-1.038-1.083 3.98-3.814-3.992-3.991 1.061-1.061 5.075 5.075-5.086 4.874z"></path><path d="M170.81 57.563h1.5v8.5h-1.5z" class="msportalfx-svg-c04" fill="#7a7a7a"></path><circle cx="171.405" cy="66.913" r="1.7" fill="#6ea234"></circle><circle cx="171.405" cy="56.713" r="1.7" fill="#c4c4c4"></circle><path d="M454.12 53.438A21.445 21.445 0 0 0 422.191 27.9a35.76 35.76 0 0 0-66.741 17.814c0 .6.022 1.206.045 1.808A32.147 32.147 0 0 0 366.175 110H448.4a28.567 28.567 0 0 0 5.72-56.562Z" fill="#ececec"></path><path d="M419.882 61.114h-2.7a3.369 3.369 0 0 0-.522 6.691 3.625 3.625 0 0 1 .039-1.255 2.127 2.127 0 0 1 .489-4.2h2.7a2.133 2.133 0 1 1 0 4.266h-.747a1.615 1.615 0 0 0-.15.673 1.521 1.521 0 0 0 .107.562h.79a3.369 3.369 0 1 0 0-6.737Z" fill="url(#0970d28b-32c7-4d11-84d0-76d7708412bf)"></path><path d="M423.773 63.965a3.751 3.751 0 0 1 .039.518 3.491 3.491 0 0 1-.073.735 2.127 2.127 0 0 1-.488 4.2h-2.7a2.133 2.133 0 0 1 0-4.266h.741a1.568 1.568 0 0 0 .044-1.236h-.78a3.369 3.369 0 0 0 0 6.736h2.7a3.369 3.369 0 0 0 .522-6.691Z" fill="url(#0970d28b-32c7-4d11-84d0-76d7708412c0)"></path><path d="m415.37 72.072-.618.624a.424.424 0 0 1-.137.092.434.434 0 0 1-.163.032.424.424 0 0 1-.3-.124l-6.906-6.9a.85.85 0 0 1 0-1.2l.624-.612 7.5 7.49a.391.391 0 0 1 .09.134.41.41 0 0 1 .032.159.418.418 0 0 1-.032.159.391.391 0 0 1-.09.134Z" fill="#50e6ff"></path><path d="m414.623 57.814.69.69a.42.42 0 0 1 .093.138.426.426 0 0 1 0 .324.42.42 0 0 1-.093.138l-7.375 7.396-.692-.684a.85.85 0 0 1 0-1.2l6.782-6.8a.424.424 0 0 1 .595 0Z" fill="#1490df"></path><path d="M425.626 72.561a.4.4 0 0 1-.092-.134.387.387 0 0 1-.034-.158.415.415 0 0 1 .029-.159.408.408 0 0 1 .088-.136h.009l7.5-7.482.624.623a.85.85 0 0 1 0 1.2l-6.917 6.885a.423.423 0 0 1-.133.092.431.431 0 0 1-.158.034.408.408 0 0 1-.159-.029.425.425 0 0 1-.136-.088l-.009-.008Z" fill="#50e6ff"></path><path d="m426.967 58.308 6.787 6.8a.844.844 0 0 1 0 1.189l-.691.69-7.382-7.4a.432.432 0 0 1 0-.6l.69-.685a.422.422 0 0 1 .6 0Z" fill="#1490df"></path><path d="m388.37 55-6.69 3.88v.96h1.23v7.28h1.21v-7.28h8.5v7.89h1.21v-7.89h1.23v-.96Z" fill="url(#0970d28b-32c7-4d11-84d0-76d7708412c1)"></path><path d="M385.33 67.12h2.43V64.7h-2.43Zm3.64 0h2.43V64.7H389Zm-3.64-3.62h2.43v-2.45h-2.43Zm3.67-2.45v2.45h2.4v-2.45Z" fill="#50e6ff"></path><path d="M394.14 67.91c-2.31 0-4.14-.6-4.14-1.33v7.09c0 .73 1.84 1.32 4.12 1.33h.06c2.31 0 4.18-.6 4.18-1.33v-7.09c-.04.73-1.91 1.33-4.22 1.33Z" fill="url(#0970d28b-32c7-4d11-84d0-76d7708412c2)"></path><path d="M398.32 66.58c0 .73-1.87 1.33-4.18 1.33s-4.14-.6-4.14-1.33 1.87-1.33 4.18-1.33 4.18.59 4.18 1.33" fill="#e8e8e8"></path><path d="M397.35 66.5c0 .47-1.44.85-3.21.85s-3.2-.41-3.2-.85 1.43-.85 3.2-.85 3.21.38 3.21.85Z" fill="#50e6ff"></path><path d="M394.14 66.67a8.582 8.582 0 0 0-2.54.32 9.94 9.94 0 0 0 5.08 0 8.582 8.582 0 0 0-2.54-.32Z" fill="#32bedd"></path><path d="M377 67.629h10v5.577a.335.335 0 0 1-.335.335h-9.33a.335.335 0 0 1-.335-.335Z" fill="url(#0970d28b-32c7-4d11-84d0-76d7708412c3)"></path><path d="M377.335 65.5h9.33a.335.335 0 0 1 .335.335v1.794h-10v-1.8a.342.342 0 0 1 .1-.233.338.338 0 0 1 .235-.096Z" fill="#198ab3"></path><path d="M378.359 68.276h7.276a.161.161 0 0 1 .153.159v.824a.156.156 0 0 1-.045.11.158.158 0 0 1-.108.049h-7.276a.16.16 0 0 1-.109-.049.155.155 0 0 1-.044-.11v-.824a.157.157 0 0 1 .044-.11.16.16 0 0 1 .109-.049Z" class="msportalfx-svg-c01" fill="#ffffff"></path><path d="M378.365 69.918h7.276a.157.157 0 0 1 .153.158v.83a.159.159 0 0 1-.044.11.162.162 0 0 1-.109.049h-7.276a.162.162 0 0 1-.109-.049.159.159 0 0 1-.044-.11v-.8a.147.147 0 0 1 0-.069.161.161 0 0 1 .031-.061.146.146 0 0 1 .053-.042.157.157 0 0 1 .069-.016Z" fill="#9cebff"></path><path d="M378.365 71.576h7.276a.159.159 0 0 1 .153.159v.83a.161.161 0 0 1-.044.11.167.167 0 0 1-.109.049h-7.276a.167.167 0 0 1-.109-.049.161.161 0 0 1-.044-.11v-.83a.159.159 0 0 1 .153-.159Z" fill="#50e6ff"></path><path fill="#adf1d1" d="m239 64.5-5-4.5v2h-43v5h43v2l5-4.5zm91 1-5-4.5v2h-45v5h45v2l5-4.5z"></path><circle cx="151" cy="111" r="14" fill="#ececec"></circle><path d="M154.74 112.15a1.16 1.16 0 1 0-1.16-1.16 1.16 1.16 0 0 0 1.16 1.16Z" fill="url(#0970d28b-32c7-4d11-84d0-76d7708412c4)"></path><path d="M151.04 112.16a1.16 1.16 0 1 0-1.16-1.16 1.16 1.16 0 0 0 1.16 1.16Z" fill="url(#0970d28b-32c7-4d11-84d0-76d7708412c5)"></path><path d="M147.34 112.16a1.16 1.16 0 1 0-1.16-1.16 1.16 1.16 0 0 0 1.16 1.16Z" fill="url(#0970d28b-32c7-4d11-84d0-76d7708412c6)"></path><path d="m148.182 115.638-.664.665a.3.3 0 0 1-.212.088.3.3 0 0 1-.212-.087l-4.914-4.9a.6.6 0 0 1 0-.848l.664-.666 5.339 5.324a.3.3 0 0 1 0 .425Z" fill="#50e6ff"></path><path d="m147.418 105.708.666.664a.3.3 0 0 1 0 .424l-5.246 5.261-.666-.663a.6.6 0 0 1 0-.849l4.823-4.836a.3.3 0 0 1 .424 0Z" fill="#1490df"></path><path d="m159.157 109.88.663.666a.6.6 0 0 1 0 .848l-4.914 4.9a.3.3 0 0 1-.424 0l-.664-.665a.3.3 0 0 1 0-.425Z" fill="#50e6ff"></path><path d="m159.819 111.387-.666.664-5.247-5.261a.3.3 0 0 1 0-.425l.673-.67a.3.3 0 0 1 .212-.088.3.3 0 0 1 .212.088l4.823 4.836a.6.6 0 0 1 0 .849Z" fill="#1490df"></path><path d="m88.542 54.745-8.808 8.807a.634.634 0 0 0 0 .9l8.808 8.807a.633.633 0 0 0 .9 0l8.807-8.807a.634.634 0 0 0 0-.9l-8.807-8.807a.633.633 0 0 0-.9 0Z" fill="url(#0970d28b-32c7-4d11-84d0-76d7708412c7)"></path><path d="m86.834 59.2 2.088-2.089a.111.111 0 0 1 .156 0l2.144 2.089a.1.1 0 0 1 .036.054.1.1 0 0 1 0 .065.1.1 0 0 1-.044.048.1.1 0 0 1-.064.011h-1.283a.109.109 0 0 0-.111.111v2.7a.1.1 0 0 1-.1.1h-1.3a.1.1 0 0 1-.042 0 .107.107 0 0 1-.036-.021.1.1 0 0 1-.025-.034.084.084 0 0 1-.008-.041v-2.7a.115.115 0 0 0-.029-.075.113.113 0 0 0-.071-.036h-1.234a.115.115 0 0 1-.091-.066.1.1 0 0 1-.008-.058.107.107 0 0 1 .022-.058Zm4.388 9.6-2.144 2.089a.111.111 0 0 1-.156 0L86.834 68.8a.107.107 0 0 1-.022-.054.1.1 0 0 1 .008-.058.115.115 0 0 1 .037-.045.109.109 0 0 1 .054-.021h1.234a.113.113 0 0 0 .071-.036.115.115 0 0 0 .029-.075v-2.7a.084.084 0 0 1 .008-.041.1.1 0 0 1 .025-.034.107.107 0 0 1 .036-.021.118.118 0 0 1 .042 0h1.3a.1.1 0 0 1 .1.1v2.7a.11.11 0 0 0 .032.079.115.115 0 0 0 .079.032h1.222a.11.11 0 0 1 .082-.021.113.113 0 0 1 .074.043.117.117 0 0 1 .021.083.114.114 0 0 1-.044.069Zm-6.288-2.756v-1.222a.132.132 0 0 0-.036-.076.125.125 0 0 0-.076-.035h-2.7a.111.111 0 0 1-.111-.1v-1.3a.126.126 0 0 1 .036-.076.12.12 0 0 1 .075-.035h2.7a.112.112 0 0 0 .075-.028.115.115 0 0 0 .037-.072v-1.233a.1.1 0 0 1 .049-.124.1.1 0 0 1 .128.035l2.089 2.111a.086.086 0 0 1 .023.033.1.1 0 0 1 .008.039.1.1 0 0 1-.008.039.086.086 0 0 1-.023.033l-2.089 2.089a.1.1 0 0 1-.054.036.1.1 0 0 1-.065 0 .1.1 0 0 1-.048-.044.1.1 0 0 1-.01-.07Zm8.133-4.177V63.1a.11.11 0 0 0 .111.1h2.7a.122.122 0 0 1 .076.035.125.125 0 0 1 .035.076v1.3a.116.116 0 0 1-.036.072.114.114 0 0 1-.075.028h-2.7a.121.121 0 0 0-.111.111v1.222a.1.1 0 0 1-.059.109.1.1 0 0 1-.065 0 .1.1 0 0 1-.054-.036L90.8 64a.109.109 0 0 1-.023-.033.1.1 0 0 1-.008-.039.1.1 0 0 1 .008-.039.1.1 0 0 1 .023-.033l2.089-2.078a.1.1 0 0 1 .058-.042.1.1 0 0 1 .119.059.1.1 0 0 1 .001.072Z" class="msportalfx-svg-c01" fill="#ffffff"></path><path fill="#adf1d1" d="m153 63.5-5-4.5v2h-42v5h42v2l5-4.5zm8.654-20.36c-7.268-12.651-21.6-12.6-28.323-10.732l1.338 4.818c5.507-1.529 17.331-1.587 22.975 8.993L156 47.481l6.614 1.225.525-6.706Z"></path></g><defs>
<linearGradient id="0970d28b-32c7-4d11-84d0-76d7708412b7" x1="9" y1="87.5" x2="9" y2="70.5" gradientTransform="matrix(1 0 0 -1 0 144)" gradientUnits="userSpaceOnUse"><stop offset="0" stop-color="#5ea0ef"></stop><stop offset=".18" stop-color="#559cec"></stop><stop offset=".47" stop-color="#3c91e5"></stop><stop offset=".84" stop-color="#1380da"></stop><stop offset="1" stop-color="#0078d4"></stop></linearGradient>
<linearGradient id="0970d28b-32c7-4d11-84d0-76d7708412b8" x1="256.554" y1="81.122" x2="256.554" y2="76.131" gradientTransform="matrix(1 0 0 -1 0 144)" gradientUnits="userSpaceOnUse"><stop offset=".23" stop-color="#5ea0ef"></stop><stop offset=".93" stop-color="#127fd9"></stop></linearGradient>
<linearGradient id="0970d28b-32c7-4d11-84d0-76d7708412b9" x1="259.024" y1="79.046" x2="259.024" y2="74.056" gradientTransform="matrix(1 0 0 -1 0 144)" gradientUnits="userSpaceOnUse"><stop offset=".02" stop-color="#5ea0ef"></stop><stop offset=".93" stop-color="#127fd9"></stop></linearGradient>
<linearGradient id="0970d28b-32c7-4d11-84d0-76d7708412ba" x1="45.863" y1="83.441" x2="47.191" y2="82.117" gradientTransform="matrix(1 0 0 -1 0 144)" gradientUnits="userSpaceOnUse"><stop offset="0" stop-color="#86d633"></stop><stop offset="1" stop-color="#5e9624"></stop></linearGradient>
<linearGradient id="0970d28b-32c7-4d11-84d0-76d7708412bb" x1="48.273" y1="79.013" x2="49.597" y2="77.685" gradientUnits="userSpaceOnUse"><stop offset="0" stop-color="#86d633"></stop><stop offset="1" stop-color="#5e9624"></stop></linearGradient>
<linearGradient id="0970d28b-32c7-4d11-84d0-76d7708412bc" x1="43.144" y1="79.014" x2="44.466" y2="77.692" gradientUnits="userSpaceOnUse"><stop offset="0" stop-color="#86d633"></stop><stop offset="1" stop-color="#5e9624"></stop></linearGradient>
<linearGradient id="0970d28b-32c7-4d11-84d0-76d7708412bd" x1="125.735" y1="97.72" x2="125.735" y2="104.48" gradientTransform="matrix(1 0 0 -1 0 144)" gradientUnits="userSpaceOnUse"><stop offset="0" stop-color="#0078d4"></stop><stop offset=".82" stop-color="#5ea0ef"></stop></linearGradient>
<linearGradient id="0970d28b-32c7-4d11-84d0-76d7708412be" x1="125.76" y1="95.11" x2="125.76" y2="97.72" gradientTransform="matrix(1 0 0 -1 0 144)" gradientUnits="userSpaceOnUse"><stop offset=".15" stop-color="#ccc"></stop><stop offset="1" stop-color="#707070"></stop></linearGradient>
<linearGradient id="0970d28b-32c7-4d11-84d0-76d7708412bf" x1="418.588" y1="82.887" x2="418.588" y2="76.149" gradientUnits="userSpaceOnUse"><stop offset=".23" stop-color="#5ea0ef"></stop><stop offset=".93" stop-color="#127fd9"></stop></linearGradient>
<linearGradient id="0970d28b-32c7-4d11-84d0-76d7708412c0" x1="421.924" y1="80.084" x2="421.924" y2="73.348" gradientUnits="userSpaceOnUse"><stop offset=".02" stop-color="#5ea0ef"></stop><stop offset=".93" stop-color="#127fd9"></stop></linearGradient>
<linearGradient id="0970d28b-32c7-4d11-84d0-76d7708412c1" x1="388.37" y1="89" x2="388.37" y2="76.27" gradientTransform="matrix(1 0 0 -1 0 144)" gradientUnits="userSpaceOnUse"><stop offset="0" stop-color="#b3b2b3"></stop><stop offset=".38" stop-color="#afaeaf"></stop><stop offset=".76" stop-color="#a2a2a2"></stop><stop offset="1" stop-color="#979797"></stop></linearGradient>
<linearGradient id="0970d28b-32c7-4d11-84d0-76d7708412c2" x1="389.96" y1="73.21" x2="398.32" y2="73.21" gradientTransform="matrix(1 0 0 -1 0 144)" gradientUnits="userSpaceOnUse"><stop offset="0" stop-color="#005ba1"></stop><stop offset=".07" stop-color="#0060a9"></stop><stop offset=".36" stop-color="#0071c8"></stop><stop offset=".52" stop-color="#0078d4"></stop><stop offset=".64" stop-color="#0074cd"></stop><stop offset=".82" stop-color="#006abb"></stop><stop offset="1" stop-color="#005ba1"></stop></linearGradient>
<linearGradient id="0970d28b-32c7-4d11-84d0-76d7708412c3" x1="382" y1="70.459" x2="382" y2="76.371" gradientTransform="matrix(1 0 0 -1 0 144)" gradientUnits="userSpaceOnUse"><stop offset="0" stop-color="#32bedd"></stop><stop offset=".18" stop-color="#32caea"></stop><stop offset=".41" stop-color="#32d2f2"></stop><stop offset=".78" stop-color="#32d4f5"></stop></linearGradient>
<linearGradient id="0970d28b-32c7-4d11-84d0-76d7708412c4" x1="154.742" y1="31.845" x2="154.739" y2="34.165" gradientUnits="userSpaceOnUse"><stop offset="0" stop-color="#0078d4"></stop><stop offset=".82" stop-color="#5ea0ef"></stop></linearGradient>
<linearGradient id="0970d28b-32c7-4d11-84d0-76d7708412c5" x1="151.03" y1="30.671" x2="151.04" y2="32.991" gradientUnits="userSpaceOnUse"><stop offset="0" stop-color="#0078d4"></stop><stop offset=".82" stop-color="#5ea0ef"></stop></linearGradient>
<linearGradient id="0970d28b-32c7-4d11-84d0-76d7708412c6" x1="147.33" y1="30.671" x2="147.34" y2="32.991" gradientUnits="userSpaceOnUse"><stop offset="0" stop-color="#0078d4"></stop><stop offset=".82" stop-color="#5ea0ef"></stop></linearGradient>
<linearGradient id="0970d28b-32c7-4d11-84d0-76d7708412c7" x1="88.99" y1="70.235" x2="88.99" y2="87.979" gradientTransform="matrix(1 0 0 -1 0 144)" gradientUnits="userSpaceOnUse"><stop offset="0" stop-color="#258277"></stop><stop offset=".42" stop-color="#49a498"></stop><stop offset=".78" stop-color="#60baad"></stop><stop offset="1" stop-color="#68c2b5"></stop></linearGradient>
</defs>
</svg>