<svg viewBox="0 0 16 16" class="" role="presentation" focusable="false" xmlns="http://www.w3.org/2000/svg" xmlns:xlink="http://www.w3.org/1999/xlink" id="FxSymbol0-027" data-type="399"><g><title></title><path d="M12.6 15.58a.5.5 0 0 1 .135-.694L15 13.361V3.041l-2.335-1.96a.5.5 0 0 1-.061-.7.5.5 0 0 1 .7-.062L16 2.574v11.318l-2.7 1.823a.5.5 0 0 1-.7-.135zm-9.9.135L0 13.89V2.572L2.689.317a.5.5 0 0 1 .705.062.5.5 0 0 1-.062.705L1 3.039v10.32l2.263 1.527a.5.5 0 0 1 .135.694.5.5 0 0 1-.698.135z"></path><path d="m7.929 1.984-5.5 2.75v6.618l5.5 2.75 5.5-2.75V4.734zm3.882 3.059L7.929 6.984 4.047 5.043 7.929 3.1zM7.9 7.6l.029-.057.029.057zM3.429 5.852l4 2v4.882l-4-2zm5 6.883V7.853l4-2v4.882z"></path></g><defs>
</defs>
</svg>