<svg viewBox="0 0 18 18" class="" role="presentation" focusable="false" xmlns="http://www.w3.org/2000/svg" xmlns:xlink="http://www.w3.org/1999/xlink" id="FxSymbol0-1b3" data-type="1"><g><title></title><path d="M5.25 4.418h6.35a3.256 3.256 0 1 0-.1-1.059H5.25a2.66 2.66 0 1 0-1.185 2.757l4.786 5.038a3.932 3.932 0 0 0-.928 2.52 4 4 0 1 0 1.7-3.246L4.832 5.387a2.611 2.611 0 0 0 .418-.969zm9.49-3.01a2.191 2.191 0 1 1-2.2 2.191 2.2 2.2 0 0 1 2.2-2.191zM1.059 3.888a1.593 1.593 0 1 1 1.593 1.583 1.59 1.59 0 0 1-1.593-1.583zm10.851 6.867a2.919 2.919 0 1 1-2.929 2.919 2.928 2.928 0 0 1 2.929-2.919z"></path></g><defs>
</defs>
</svg>