<svg viewBox="0 0 16 16" class="msportalfx-svg-palette-blue" role="presentation" focusable="false" xmlns="http://www.w3.org/2000/svg" xmlns:xlink="http://www.w3.org/1999/xlink" id="FxSymbol0-1aa" data-type="387"><g><title></title><path d="M8 6a3 3 0 0 1 1.16.23 2.91 2.91 0 0 1 1 .65 3.25 3.25 0 0 1 .65 1A2.7 2.7 0 0 1 11 9a3 3 0 0 1-.23 1.16 3.29 3.29 0 0 1-.64 1 3.24 3.24 0 0 1-1 .65A3 3 0 0 1 8 12a3 3 0 0 1-1.16-.23 3.29 3.29 0 0 1-1-.64 3.19 3.19 0 0 1-.65-1 3.07 3.07 0 0 1 0-2.33 2.91 2.91 0 0 1 .65-1 3.2 3.2 0 0 1 1-.65A2.69 2.69 0 0 1 8 6zm0 5a1.8 1.8 0 0 0 .77-.16 1.85 1.85 0 0 0 .64-.43 1.81 1.81 0 0 0 .43-.63A2.21 2.21 0 0 0 10 9a1.8 1.8 0 0 0-.16-.77 1.85 1.85 0 0 0-.43-.64 1.81 1.81 0 0 0-.63-.43A2.21 2.21 0 0 0 8 7a1.8 1.8 0 0 0-.77.16 1.85 1.85 0 0 0-.64.43 1.81 1.81 0 0 0-.43.63A2.21 2.21 0 0 0 6 9a1.8 1.8 0 0 0 .16.77 1.85 1.85 0 0 0 .43.64 1.81 1.81 0 0 0 .63.43A2.21 2.21 0 0 0 8 11zm0-9a9.36 9.36 0 0 1 2.22.27 8.92 8.92 0 0 1 2.08.82 8.23 8.23 0 0 1 1.76 1.33 6.73 6.73 0 0 1 1.78 3.17A6 6 0 0 1 16 9h-1a5.19 5.19 0 0 0-.28-1.73A6.06 6.06 0 0 0 14 5.8a6 6 0 0 0-1.18-1.18 7.66 7.66 0 0 0-1.44-.89 7.43 7.43 0 0 0-1.68-.54A7.77 7.77 0 0 0 8 3a7.64 7.64 0 0 0-1.7.19 7.71 7.71 0 0 0-1.62.54 7.43 7.43 0 0 0-1.45.89A5.94 5.94 0 0 0 2.06 5.8a6.46 6.46 0 0 0-.78 1.47A4.73 4.73 0 0 0 1 9H0a6 6 0 0 1 .16-1.41 6.94 6.94 0 0 1 .48-1.34 6.54 6.54 0 0 1 1.29-1.82A8.25 8.25 0 0 1 3.7 3.09a8.64 8.64 0 0 1 2.08-.81A9.78 9.78 0 0 1 8 2z"></path></g><defs>
</defs>
</svg>