<svg viewBox="0 0 18 18" class="" role="presentation" focusable="false" xmlns="http://www.w3.org/2000/svg" xmlns:xlink="http://www.w3.org/1999/xlink" id="FxSymbol0-18d" data-type="200"><g><path fill="url(#0970d28b-32c7-4d11-84d0-76d770841265)" d="M15.945 16.554c-.417-3.333-2.051-6.156-5.062-7.071a4.079 4.079 0 1 0-4.462-.035c-3.034.814-4.653 3.37-5.023 7.116a1.3 1.3 0 0 0 1.161 1.429A1.15 1.15 0 0 0 2.69 18h11.965a1.294 1.294 0 0 0 1.3-1.29 1.347 1.347 0 0 0-.01-.156z"></path><path d="M8.684 10.135a4.068 4.068 0 0 1-2.211-.651L8.662 15.2l2.173-5.681a4.063 4.063 0 0 1-2.151.616z" opacity=".8" class="msportalfx-svg-c01" fill="#ffffff"></path><path fill="#767676" d="M14.805 7.227a6.39 6.39 0 0 0-.092-2.543A6.207 6.207 0 0 0 8.888.008a5.543 5.543 0 0 0-5.212 2.764.588.588 0 0 0 .187.812.543.543 0 0 0 .737-.164 4.515 4.515 0 0 1 4.223-2.285 5.078 5.078 0 0 1 4.758 3.679 5.242 5.242 0 0 1 .126 2.137.936.936 0 0 0-.536.589l-.273.9a.94.94 0 1 0 1.8.547l.274-.9a.938.938 0 0 0-.167-.86z"></path></g><defs>
<linearGradient id="0970d28b-32c7-4d11-84d0-76d770841265" x1="7.434" x2="9.215" y1="1.303" y2="23.449" gradientUnits="userSpaceOnUse"><stop offset=".225" stop-color="#32d4f5"></stop><stop offset=".389" stop-color="#30cff1"></stop><stop offset=".584" stop-color="#2bc0e4"></stop><stop offset=".795" stop-color="#23a9ce"></stop><stop offset="1" stop-color="#198ab3"></stop></linearGradient>
</defs>
</svg>