<svg viewBox="0 0 63.36 73.44" class="" role="presentation" focusable="false" xmlns="http://www.w3.org/2000/svg" xmlns:xlink="http://www.w3.org/1999/xlink" id="FxSymbol0-15b" data-type="1"><g><title></title><title>NGINX-hex-source-RGB-02</title><path d="M.503 54.721a3.637 3.637 0 0 0 1.366 1.356l27.953 16.138a3.668 3.668 0 0 0 3.716 0l27.954-16.139a3.666 3.666 0 0 0 1.857-3.216V20.583l-.001-.001a3.667 3.667 0 0 0-1.858-3.217L33.536 1.226a3.663 3.663 0 0 0-3.712 0L1.87 17.365a3.665 3.665 0 0 0-1.859 3.217V52.86a3.644 3.644 0 0 0 .49 1.861" fill="#009639"></path><path d="M22.73 49.008a3.595 3.595 0 0 1-7.19 0h.001l.004-24.676c0-1.912 1.689-3.493 4.082-3.493a6.393 6.393 0 0 1 4.9 2.19l1.086 1.3 15.018 17.974V24.432h-.002a3.595 3.595 0 0 1 7.19 0l-.004 24.676c0 1.911-1.69 3.492-4.082 3.492a6.389 6.389 0 0 1-4.9-2.19L22.728 31.136v17.872Z" class="msportalfx-svg-c01" fill="#ffffff"></path><path d="M59.975 66.034h.46v-1.023h.362a1.037 1.037 0 0 1 .51.085.64.64 0 0 1 .243.595v.21l.01.078a.158.158 0 0 1 .008.033c.002.013.003.016.01.022h.426l-.016-.029a.299.299 0 0 1-.02-.133c-.007-.073-.007-.136-.007-.194v-.194a.742.742 0 0 0-.142-.406.661.661 0 0 0-.453-.254 1.119 1.119 0 0 0 .378-.123.567.567 0 0 0 .254-.515.64.64 0 0 0-.402-.66 2 2 0 0 0-.712-.094h-.91Zm1.306-1.403a1.188 1.188 0 0 1-.437.058h-.41v-.947h.392a1.155 1.155 0 0 1 .552.102.394.394 0 0 1 .172.38.4.4 0 0 1-.269.407m1.334-1.564a2.308 2.308 0 0 0-1.687-.69 2.373 2.373 0 0 0 0 4.747 2.377 2.377 0 0 0 1.687-4.057m-.241.236a1.944 1.944 0 0 1 .596 1.443 2.04 2.04 0 0 1-3.486 1.451 2.013 2.013 0 0 1-.593-1.45 2.046 2.046 0 0 1 2.037-2.05 1.946 1.946 0 0 1 1.446.606" fill="#999"></path></g><defs>
</defs>
</svg>