<svg viewBox="0 0 18 18" class="" role="presentation" focusable="false" xmlns="http://www.w3.org/2000/svg" xmlns:xlink="http://www.w3.org/1999/xlink" id="FxSymbol0-076" data-type="1"><g><title>Icon-web-45</title><path d="M17.5 2.5v10.83a.58.58 0 0 1-.59.58h-4.52a.14.14 0 0 0-.14.14v1.75a.28.28 0 0 1-.45.22l-2.72-2.08H1.09a.58.58 0 0 1-.59-.58V2.5a.58.58 0 0 1 .59-.58h15.82a.58.58 0 0 1 .59.58Z" fill="url(#0970d28b-32c7-4d11-84d0-76d7708410b4)"></path><path d="m2.05 9 3 2.52a.29.29 0 0 0 .47-.22v-1.1h11.96V8.5H2.23a.29.29 0 0 0-.18.5Z" fill="#ffe452"></path><path d="m16.24 6.46-3.11-2.52a.29.29 0 0 0-.47.22v1.1H.5V7h15.56a.29.29 0 0 0 .18-.54Z" class="msportalfx-svg-c01" fill="#ffffff"></path></g><defs>
<linearGradient id="0970d28b-32c7-4d11-84d0-76d7708410b4" x1="9" y1=".81" x2="9" y2="21.28" gradientUnits="userSpaceOnUse"><stop offset="0" stop-color="#ffd70f"></stop><stop offset=".34" stop-color="#eeb309"></stop><stop offset=".77" stop-color="#dc8c03"></stop><stop offset="1" stop-color="#d57d01"></stop></linearGradient>
</defs>
</svg>