<svg viewBox="0 0 18 18" class="" role="presentation" focusable="false" xmlns="http://www.w3.org/2000/svg" xmlns:xlink="http://www.w3.org/1999/xlink" id="FxSymbol0-18b" data-type="195"><g><circle cx="8.882" cy="9.09" r="8.5" fill="url(#0970d28b-32c7-4d11-84d0-76d770841262)"></circle><circle cx="8.916" cy="9.09" r="7.401" class="msportalfx-svg-c01" fill="#ffffff"></circle><path d="m12.354 5.353.896-.897.29.29-.897.896zm1.576 3.524h1.268v.409H13.93zm-1.634 3.876.289-.29.896.897-.289.29zM8.71 14.077h.409v1.268H8.71zM4.249 4.704l.289-.29.897.897-.29.29zm.061 8.693.896-.897.29.29-.897.896zm-1.757-4.52h1.268v.409H2.553zm9.419 2.483L9.821 9.209a.518.518 0 0 0-.351-.148.507.507 0 0 0 .065-.238V3.348a.522.522 0 0 0-.52-.521h-.1a.522.522 0 0 0-.521.521v5.475a.522.522 0 0 0 .521.521h.058a.514.514 0 0 0 .042.67l2.151 2.151a.521.521 0 0 0 .735 0l.07-.07a.521.521 0 0 0 .001-.735z" class="msportalfx-svg-c04" fill="#7a7a7a"></path><circle cx="8.921" cy="9.076" r="1.204" fill="url(#0970d28b-32c7-4d11-84d0-76d770841263)"></circle></g><defs>
<radialGradient id="0970d28b-32c7-4d11-84d0-76d770841262" cx="-7.554" cy="17.423" r="9" gradientTransform="matrix(.944 0 0 .944 16.017 -7.365)" gradientUnits="userSpaceOnUse"><stop offset=".183" stop-color="#5ea0ef"></stop><stop offset=".555" stop-color="#5c9fee"></stop><stop offset=".689" stop-color="#559ced"></stop><stop offset=".785" stop-color="#4a97e9"></stop><stop offset=".862" stop-color="#3990e4"></stop><stop offset=".928" stop-color="#2387de"></stop><stop offset=".985" stop-color="#087bd6"></stop><stop offset="1" stop-color="#0078d4"></stop></radialGradient>
<radialGradient id="0970d28b-32c7-4d11-84d0-76d770841263" cx="-7.174" cy="18.501" r="1.259" gradientTransform="matrix(.943 0 0 .943 15.676 -8.345)" gradientUnits="userSpaceOnUse"><stop offset="0" stop-color="#7f7f7f"></stop><stop offset="1" stop-color="#5e5e5e"></stop></radialGradient>
</defs>
</svg>