<svg viewBox="0 0 342 342" class="" role="presentation" focusable="false" xmlns="http://www.w3.org/2000/svg" xmlns:xlink="http://www.w3.org/1999/xlink" id="FxSymbol0-16f" data-type="1"><g><g clip-path="url(#0970d28b-32c7-4d11-84d0-76d77084121d)" transform="translate(-500 -158)"><path d="m685.261 381.706 37.892-37.892L840.95 461.61l-37.892 37.892Z" fill="#0078D4" fill-rule="evenodd"></path><path d="m785.477 472.673 7.079-7.079 16.316 16.317-7.078 7.078Zm10.783-10.783 7.078-7.078 16.317 16.317-7.079 7.078Zm10.782-10.782 7.078-7.078 16.317 16.316-7.078 7.079Z" fill="#50E6FF" fill-rule="evenodd"></path><path fill="#0078D4" d="m618.294 314.739 37.892-37.892-117.797-117.796-37.891 37.892z"></path><path fill="#50E6FF" d="m527.327 214.523 7.078-7.078-16.316-16.317-7.078 7.079zm10.783-10.783 7.078-7.078-16.316-16.317-7.078 7.079zm10.782-10.782 7.078-7.078-16.316-16.317-7.078 7.079z"></path><path fill="#0078D4" d="m669.069 380.995 53.374-53.374-50.063-50.063-53.374 53.374z"></path><path fill="#50E6FF" d="m660.26 372.186 64.993-64.993-32.545-32.545-64.993 64.993z"></path><path d="M615.077 385.303c12.814 12.814 27.19 19.212 32.11 14.291 4.921-4.92-1.477-19.296-14.29-32.11-12.814-12.813-27.19-19.212-32.111-14.291-4.92 4.92 1.478 19.297 14.291 32.11Z" stroke="#50E6FF" stroke-width="6" stroke-miterlimit="8" fill="#0078D4" fill-rule="evenodd"></path><path d="M587.744 389.553c.14 11.045 9.207 19.885 20.252 19.745m-37.49-23c.286 22.508 18.765 40.524 41.273 40.238" stroke="#0078D4" stroke-width="5" stroke-miterlimit="8" fill="none"></path><path d="M551.138 384.025c.439 34.615 28.856 62.32 63.47 61.88" stroke="#0078D4" stroke-width="5" stroke-miterlimit="8" fill="none"></path></g></g><defs>
<clipPath id="0970d28b-32c7-4d11-84d0-76d77084121d"><path d="M500 158h342v342H500z"></path></clipPath>
</defs>
</svg>