<svg viewBox="0 0 18 18" class="" role="presentation" focusable="false" xmlns="http://www.w3.org/2000/svg" xmlns:xlink="http://www.w3.org/1999/xlink" id="FxSymbol0-197" data-type="311"><g><path fill="url(#0970d28b-32c7-4d11-84d0-76d770841272)" d="M18 9.5a4.06 4.06 0 0 0-3.51-3.89A5.1 5.1 0 0 0 9.24.74a5.23 5.23 0 0 0-5 3.41A4.82 4.82 0 0 0 0 8.79a4.9 4.9 0 0 0 5.07 4.71h8.65a1.46 1.46 0 0 0 .22 0 4.1 4.1 0 0 0 4.06-4z"></path><rect width="4.25" height=".9" x="9.23" y="16.36" fill="#198ab3" rx=".3"></rect><rect width="4.25" height=".9" x="9.23" y="14.45" fill="#32bedd" rx=".3"></rect><rect width="4.25" height=".9" x="9.23" y="12.55" fill="#50e6ff" rx=".3"></rect><rect width="4.25" height=".9" x="4.95" y="7.8" fill="#f2f2f2" rx=".3"></rect><rect width="4.25" height=".9" x="4.95" y="9.55" fill="#f2f2f2" rx=".3"></rect><rect width="4.25" height=".9" x="4.95" y="11.31" fill="#f2f2f2" rx=".3"></rect></g><defs>
<linearGradient id="0970d28b-32c7-4d11-84d0-76d770841272" x1="9" x2="9" y1="13.5" y2=".74" gradientUnits="userSpaceOnUse"><stop offset="0" stop-color="#0078d4"></stop><stop offset=".16" stop-color="#1380da"></stop><stop offset=".53" stop-color="#3c91e5"></stop><stop offset=".82" stop-color="#559cec"></stop><stop offset="1" stop-color="#5ea0ef"></stop></linearGradient>
</defs>
</svg>