<svg viewBox="0 0 18 18" class="" role="presentation" focusable="false" xmlns="http://www.w3.org/2000/svg" xmlns:xlink="http://www.w3.org/1999/xlink" id="FxSymbol0-171" data-type="1"><g><path d="M17.576 3.283H9.73a.358.358 0 0 1-.23-.075L7.253 1.716a.456.456 0 0 0-.233-.064H.424A.424.424 0 0 0 0 2.065v13.87a.424.424 0 0 0 .424.413h17.152a.422.422 0 0 0 .424-.413V3.706a.423.423 0 0 0-.424-.423Z" fill="#0078d4"></path><rect x="1.641" y="2.457" width="4.087" height=".815" rx=".169" class="msportalfx-svg-c01" fill="#ffffff"></rect><path d="M17.576 3.261H9a.384.384 0 0 0-.3.127L7.274 4.765a.458.458 0 0 1-.3.116H.424A.424.424 0 0 0 0 5.305v10.588a.425.425 0 0 0 .424.413h17.152a.423.423 0 0 0 .424-.413V3.706a.423.423 0 0 0-.4-.444Z" fill="url(#0970d28b-32c7-4d11-84d0-76d770841220)"></path><rect x="13.426" y="9.694" width="3.808" height="2.538" rx=".242" fill="#005ba1"></rect><path d="m13.692 6.333 3.322.06a.242.242 0 0 1 .238.246l-.037 2.053a.242.242 0 0 1-.247.238l-3.322-.06a.242.242 0 0 1-.238-.247l.037-2.052a.242.242 0 0 1 .247-.238ZM8.854 9.942v2.052a.242.242 0 0 0 .242.243h3.323a.242.242 0 0 0 .242-.243V9.942a.242.242 0 0 0-.242-.243H9.1a.242.242 0 0 0-.246.243Z" fill="#83b9f9"></path><path d="M13.669 13.025h3.322a.242.242 0 0 1 .243.242v2.053a.242.242 0 0 1-.243.242h-3.322a.242.242 0 0 1-.243-.242v-2.053a.242.242 0 0 1 .243-.242Zm-4.815.247v2.053a.242.242 0 0 0 .242.242h3.323a.242.242 0 0 0 .242-.242v-2.053a.242.242 0 0 0-.242-.242H9.1a.242.242 0 0 0-.246.242Zm-4.573 0v2.053a.242.242 0 0 0 .243.242h3.322a.242.242 0 0 0 .243-.242v-2.053a.242.242 0 0 0-.243-.242H4.524a.242.242 0 0 0-.243.242Z" fill="#003067"></path></g><defs>
<linearGradient id="0970d28b-32c7-4d11-84d0-76d770841220" x1="9" y1="16.306" x2="9" y2="3.261" gradientUnits="userSpaceOnUse"><stop offset="0" stop-color="#0078d4"></stop><stop offset="1" stop-color="#5ea0ef"></stop></linearGradient>
</defs>
</svg>