<svg viewBox="2 2 12 12" class="" role="presentation" focusable="false" xmlns="http://www.w3.org/2000/svg" xmlns:xlink="http://www.w3.org/1999/xlink" id="FxSymbol0-00a" data-type="130"><g><title></title><path d="M8 2a6 6 0 1 1 0 12A6 6 0 0 1 8 2Zm0 1a5 5 0 1 0 0 10A5 5 0 0 0 8 3Zm0 7.5A.75.75 0 1 1 8 12a.75.75 0 0 1 0-1.5Zm0-6a2 2 0 0 1 2 2c0 .73-.212 1.14-.754 1.708l-.264.27C8.605 8.87 8.5 9.082 8.5 9.5a.5.5 0 0 1-1 0c0-.73.212-1.14.754-1.708l.264-.27C8.895 7.13 9 6.918 9 6.5a1 1 0 0 0-2 0 .5.5 0 0 1-1 0 2 2 0 0 1 2-2Z"></path></g><defs>
</defs>
</svg>