<svg viewBox="0 0 18 18" class="" role="presentation" focusable="false" xmlns="http://www.w3.org/2000/svg" xmlns:xlink="http://www.w3.org/1999/xlink" id="FxSymbol0-17e" data-type="1"><g><rect x=".5" y="1.147" width="17" height="11.333" rx=".567" fill="url(#0970d28b-32c7-4d11-84d0-76d770841241)"></rect><path d="M12.409 15.909c-1.681-.265-1.747-1.474-1.747-3.429H7.328c0 1.955-.056 3.164-1.737 3.429a.944.944 0 0 0-.841.944h8.5a.944.944 0 0 0-.841-.944Z" fill="url(#0970d28b-32c7-4d11-84d0-76d770841242)"></path><path d="M2.427 10.028h6.788l6.643-6.644H2.427v6.644" fill="url(#0970d28b-32c7-4d11-84d0-76d770841243)"></path><path d="M10.4 4.713H9.071l.005 3.119-1.155-3.121H6.775L5.79 7.318c-.105-.664-.79-.892-1.33-1.064-.357-.114-.735-.283-.731-.469 0-.152.2-.294.6-.273a2.171 2.171 0 0 1 .968.262l.459-.8a3.589 3.589 0 0 0-1.5-.354 1.822 1.822 0 0 0-1.325.48 1.119 1.119 0 0 0-.316.771 1.036 1.036 0 0 0 .454.923 3.107 3.107 0 0 0 .9.412c.367.113.667.212.663.423a.314.314 0 0 1-.087.206.581.581 0 0 1-.426.134 1.825 1.825 0 0 1-1.1-.313l-.408.811a2.842 2.842 0 0 0 1.444.377h.12a1.8 1.8 0 0 0 1.139-.36l.049-.041-.047.257h1.12l.2-.514a2.287 2.287 0 0 0 1.4.006l.14.508h2.008V7.528h.427c1.033 0 1.644-.526 1.644-1.407 0-.982-.594-1.41-1.857-1.41ZM7.342 7.379a1.2 1.2 0 0 1-.423-.074l.419-1.322h.008l.412 1.326a1.251 1.251 0 0 1-.416.07Zm3.133-.759h-.291V5.554h.291c.389 0 .7.129.7.526s-.31.54-.7.54" class="msportalfx-svg-c01" fill="#ffffff"></path></g><defs>
<linearGradient id="0970d28b-32c7-4d11-84d0-76d770841241" x1="9" y1="12.48" x2="9" y2="1.147" gradientUnits="userSpaceOnUse"><stop offset="0" stop-color="#003067"></stop><stop offset=".037" stop-color="#00346c"></stop><stop offset=".239" stop-color="#004583"></stop><stop offset=".456" stop-color="#005194"></stop><stop offset=".695" stop-color="#00599e"></stop><stop offset="1" stop-color="#005ba1"></stop></linearGradient>
<linearGradient id="0970d28b-32c7-4d11-84d0-76d770841242" x1="9" y1="684.663" x2="9" y2="689.036" gradientTransform="matrix(1 0 0 -1 0 701.516)" gradientUnits="userSpaceOnUse"><stop offset=".15" stop-color="#ccc"></stop><stop offset="1" stop-color="#707070"></stop></linearGradient>
<linearGradient id="0970d28b-32c7-4d11-84d0-76d770841243" x1=".003" y1="-27.428" x2=".003" y2="-28.757" gradientTransform="matrix(5 0 0 -5 9.126 -133.758)" gradientUnits="userSpaceOnUse"><stop offset="0" stop-color="#00aeef"></stop><stop offset=".212" stop-color="#0097dc"></stop><stop offset=".519" stop-color="#007cc5"></stop><stop offset=".792" stop-color="#006cb8"></stop><stop offset="1" stop-color="#0066b3"></stop></linearGradient>
</defs>
</svg>