<svg viewBox="0 0 17 17" class="" role="presentation" focusable="false" xmlns="http://www.w3.org/2000/svg" xmlns:xlink="http://www.w3.org/1999/xlink" id="FxSymbol0-185" data-type="1"><g><title></title><path d="M1 2a1 1 0 0 1 1-1h13a1 1 0 0 1 1 1v13a1 1 0 0 1-1 1H2a1 1 0 0 1-1-1V2Z" fill="#0078D7"></path><path fill-rule="evenodd" clip-rule="evenodd" d="M9 8V1H8v7H1v1h7v7h1V9h7V8H9Z" fill-opacity=".8" class="msportalfx-svg-c01" fill="#ffffff"></path><path fill-rule="evenodd" clip-rule="evenodd" d="M4 13V4h1v9H4Z" class="msportalfx-svg-c01" fill="#ffffff"></path><path fill-rule="evenodd" clip-rule="evenodd" d="m4.396 5.104.708-.708 7.5 7.5-.707.708-7.5-7.5Z" class="msportalfx-svg-c01" fill="#ffffff"></path><path fill-rule="evenodd" clip-rule="evenodd" d="M13 5H5V4h8v1Z" class="msportalfx-svg-c01" fill="#ffffff"></path><circle cx="4.5" cy="4.5" r="2.5" fill="url(#0970d28b-32c7-4d11-84d0-76d770841254)"></circle><circle cx="12.5" cy="4.5" r="1.5" fill="url(#0970d28b-32c7-4d11-84d0-76d770841255)"></circle><circle cx="4.5" cy="12.5" r="1.5" fill="url(#0970d28b-32c7-4d11-84d0-76d770841256)"></circle><circle cx="12.5" cy="12.5" r="1.5" fill="url(#0970d28b-32c7-4d11-84d0-76d770841257)"></circle><defs></defs></g><defs>
<linearGradient id="0970d28b-32c7-4d11-84d0-76d770841254" x1="4.518" y1="7.064" x2="4.491" y2="3.447" gradientUnits="userSpaceOnUse"><stop stop-color="#CCC"></stop><stop offset=".12" stop-color="#D7D7D7"></stop><stop offset=".42" stop-color="#EBEBEB"></stop><stop offset=".72" stop-color="#F8F8F8"></stop><stop offset="1" stop-color="#FCFCFC"></stop></linearGradient>
<linearGradient id="0970d28b-32c7-4d11-84d0-76d770841255" x1="12.511" y1="6.038" x2="12.495" y2="3.868" gradientUnits="userSpaceOnUse"><stop stop-color="#CCC"></stop><stop offset=".12" stop-color="#D7D7D7"></stop><stop offset=".42" stop-color="#EBEBEB"></stop><stop offset=".72" stop-color="#F8F8F8"></stop><stop offset="1" stop-color="#FCFCFC"></stop></linearGradient>
<linearGradient id="0970d28b-32c7-4d11-84d0-76d770841256" x1="4.511" y1="14.039" x2="4.495" y2="11.868" gradientUnits="userSpaceOnUse"><stop stop-color="#CCC"></stop><stop offset=".12" stop-color="#D7D7D7"></stop><stop offset=".42" stop-color="#EBEBEB"></stop><stop offset=".72" stop-color="#F8F8F8"></stop><stop offset="1" stop-color="#FCFCFC"></stop></linearGradient>
<linearGradient id="0970d28b-32c7-4d11-84d0-76d770841257" x1="12.511" y1="14.039" x2="12.495" y2="11.868" gradientUnits="userSpaceOnUse"><stop stop-color="#CCC"></stop><stop offset=".12" stop-color="#D7D7D7"></stop><stop offset=".42" stop-color="#EBEBEB"></stop><stop offset=".72" stop-color="#F8F8F8"></stop><stop offset="1" stop-color="#FCFCFC"></stop></linearGradient>
</defs>
</svg>