<svg viewBox="0 0 18 18" class="" role="presentation" focusable="false" xmlns="http://www.w3.org/2000/svg" xmlns:xlink="http://www.w3.org/1999/xlink" id="FxSymbol0-14c" data-type="1"><g><title>Icon-storage-100</title><path d="M14 4.8A4.61 4.61 0 0 0 9.22.4 4.73 4.73 0 0 0 4.7 3.48 4.36 4.36 0 0 0 .87 7.67a4.43 4.43 0 0 0 4.58 4.25h2.93v2.63a.13.13 0 0 1-.13.13H6.78a.13.13 0 0 0-.09.22l2.47 2.47a.19.19 0 0 0 .26 0l2.47-2.47a.13.13 0 0 0-.09-.22h-1.48a.12.12 0 0 1-.12-.13V11.9h3.06a.64.64 0 0 0 .2 0 3.69 3.69 0 0 0 3.67-3.56A3.65 3.65 0 0 0 14 4.8Z" fill="url(#0970d28b-32c7-4d11-84d0-76d7708411de)"></path><path d="m4.87 8.18 2.47-2.46a.17.17 0 0 1 .26 0l2.47 2.46a.13.13 0 0 1-.07.22H8.51a.13.13 0 0 0-.13.13v3.37H6.57V8.53a.13.13 0 0 0-.13-.13H5a.13.13 0 0 1-.13-.22Z" class="msportalfx-svg-c01" fill="#ffffff"></path></g><defs>
<linearGradient id="0970d28b-32c7-4d11-84d0-76d7708411de" x1="9" y1="17.4" x2="9" y2=".4" gradientUnits="userSpaceOnUse"><stop offset="0" stop-color="#0078d4"></stop><stop offset=".82" stop-color="#5ea0ef"></stop></linearGradient>
</defs>
</svg>