<svg viewBox="0 0 18 18" class="" role="presentation" focusable="false" xmlns="http://www.w3.org/2000/svg" xmlns:xlink="http://www.w3.org/1999/xlink" id="FxSymbol0-187" data-type="3"><g><path fill="#50e6ff" d="m1.01 10.19 7.92 5.14 8.06-5.16L18 11.35l-9.07 5.84L0 11.35l1.01-1.16z"></path><path d="M1.61 9.53 8.93.81l7.47 8.73-7.47 4.72-7.32-4.73z" class="msportalfx-svg-c01" fill="#ffffff"></path><path fill="#50e6ff" d="M8.93.81v13.45L1.61 9.53 8.93.81z"></path><path fill="url(#59070e73-5271-4f4d-963b-786820ce524a)" d="M8.93.81v13.45l7.47-4.72L8.93.81z"></path><path fill="#53b1e0" d="m8.93 7.76 7.47 1.78-7.47 4.72v-6.5z"></path><path fill="#9cebff" d="M8.93 14.26 1.61 9.53l7.32-1.77v6.5z"></path><path fill="url(#59070e73-5271-4f4d-963b-786820ce524b)" d="M8.93 17.19 18 11.35l-1.01-1.18-8.06 5.16v1.86z"></path></g><defs>
<linearGradient id="59070e73-5271-4f4d-963b-786820ce524a" x1="13.25" x2="8.62" y1="13.02" y2="4.25" gradientUnits="userSpaceOnUse"><stop offset="0" stop-color="#1988d9"></stop><stop offset=".9" stop-color="#54aef0"></stop></linearGradient>
<linearGradient id="59070e73-5271-4f4d-963b-786820ce524b" x1="11.26" x2="14.46" y1="10.47" y2="15.99" gradientUnits="userSpaceOnUse"><stop offset=".1" stop-color="#54aef0"></stop><stop offset=".29" stop-color="#4fabee"></stop><stop offset=".51" stop-color="#41a2e9"></stop><stop offset=".74" stop-color="#2a93e0"></stop><stop offset=".88" stop-color="#1988d9"></stop></linearGradient>
</defs>
</svg>