<svg viewBox="0 0 18 18" class="" role="presentation" focusable="false" xmlns="http://www.w3.org/2000/svg" xmlns:xlink="http://www.w3.org/1999/xlink" id="FxSymbol0-17b" data-type="148"><g><path fill="#ffca00" d="M15.89 2.91h1.27a.34.34 0 0 1 .34.34v3.5a.34.34 0 0 1-.34.34h-1.27V2.91zm0 6.09h1.27a.34.34 0 0 1 .34.34v5.86a.34.34 0 0 1-.34.34h-1.27V9z"></path><rect width="13.76" height="15" x="2.13" y="1.5" fill="url(#a3c67a45-aada-4890-a9a1-facc537a0235)" rx=".69"></rect><path fill="#b4ec36" d="M5.9 12.9h-.71a.2.2 0 0 1-.19-.21V4.34a.19.19 0 0 1 .19-.2h1.93a.19.19 0 0 1 .19.2.2.2 0 0 1-.19.21H5.38v7.93h.52a.2.2 0 0 1 .19.21.21.21 0 0 1-.19.21z"></path><path fill="#b4ec36" d="M6 13.92H4.4a.2.2 0 0 1-.19-.21L4.08 3.38a.2.2 0 0 1 .06-.15.16.16 0 0 1 .13-.06h2.85v.41H4.47l.12 9.92H6zm6-.92h-1.59a.19.19 0 0 1-.14-.07.18.18 0 0 1-.06-.14V7.9a.19.19 0 0 1 .19-.2h.91V5.45h.38v2.44a.2.2 0 0 1-.18.21h-.91v4.42H12z"></path><rect width="6.14" height="3.11" x="7.07" y="2.29" fill="#365615" rx=".26"></rect><rect width="4.9" height="1.09" x="5.86" y="12.69" fill="#365615" rx=".26" transform="rotate(90 8.305 13.235)"></rect><rect width="4.9" height="1.09" x="3.99" y="12.71" fill="#365615" rx=".26" transform="rotate(90 6.44 13.26)"></rect><rect width="4.9" height="1.09" x="9.98" y="12.71" fill="#f2f2f2" rx=".26" transform="rotate(90 12.425 13.255)"></rect><ellipse cx="8.11" cy="8.06" fill="#f2f2f2" rx="1.04" ry="1.12"></ellipse><path fill="#3b3b3b" d="M2.11 12.25H.84a.34.34 0 0 1-.34-.3V6.09a.34.34 0 0 1 .34-.34h1.27v6.5z"></path></g><defs>
<linearGradient id="a3c67a45-aada-4890-a9a1-facc537a0235" x1="9.01" x2="9.01" y1="16.5" y2="1.5" gradientUnits="userSpaceOnUse"><stop offset="0" stop-color="#5e9641"></stop><stop offset=".34" stop-color="#6baa42"></stop><stop offset=".67" stop-color="#73b743"></stop><stop offset="1" stop-color="#76bb43"></stop></linearGradient>
</defs>
</svg>