<svg viewBox="0 0 18 18" class="" role="presentation" focusable="false" xmlns="http://www.w3.org/2000/svg" xmlns:xlink="http://www.w3.org/1999/xlink" id="FxSymbol0-02b" data-type="1"><g><path d="m16 7.2-5.76-4.11L9 2.18l-1.22.9L2 7.2 4.25 14l.47 1.44h8.6l.45-1.44L16 7.25ZM5.76 14l-2-6.22L9 4l5.28 3.79-2 6.22Z" fill="#e27908"></path><circle cx="5.07" cy="14.91" r="2.47" fill="url(#4041ea0e-792c-4ddd-920e-61035c7ba02e)"></circle><circle cx="12.79" cy="14.91" r="2.47" fill="url(#4041ea0e-792c-4ddd-920e-61035c7ba02f)"></circle><circle cx="15.3" cy="7.51" r="2.47" fill="url(#4041ea0e-792c-4ddd-920e-61035c7ba030)"></circle><circle cx="2.7" cy="7.51" r="2.47" fill="url(#4041ea0e-792c-4ddd-920e-61035c7ba031)"></circle><circle cx="9" cy="3.09" r="2.47" fill="url(#4041ea0e-792c-4ddd-920e-61035c7ba032)"></circle></g><defs>
<linearGradient id="4041ea0e-792c-4ddd-920e-61035c7ba02e" x1="2525.57" y1="-412.026" x2="2525.544" y2="-402.136" gradientTransform="matrix(.5 .001 .001 -.5 -1257.171 -191.917)" gradientUnits="userSpaceOnUse"><stop offset="0" stop-color="#ef7100"></stop><stop offset="1" stop-color="#faa21d"></stop></linearGradient>
<linearGradient id="4041ea0e-792c-4ddd-920e-61035c7ba02f" x1="12.79" y1="17.38" x2="12.79" y2="12.44" gradientUnits="userSpaceOnUse"><stop offset="0" stop-color="#ef7100"></stop><stop offset="1" stop-color="#faa21d"></stop></linearGradient>
<linearGradient id="4041ea0e-792c-4ddd-920e-61035c7ba030" x1="15.3" y1="9.98" x2="15.3" y2="5.04" gradientUnits="userSpaceOnUse"><stop offset="0" stop-color="#ef7100"></stop><stop offset="1" stop-color="#faa21d"></stop></linearGradient>
<linearGradient id="4041ea0e-792c-4ddd-920e-61035c7ba031" x1="2.7" y1="9.98" x2="2.7" y2="5.04" gradientUnits="userSpaceOnUse"><stop offset="0" stop-color="#ef7100"></stop><stop offset="1" stop-color="#faa21d"></stop></linearGradient>
<linearGradient id="4041ea0e-792c-4ddd-920e-61035c7ba032" x1="9" y1="5.56" x2="9" y2=".62" gradientUnits="userSpaceOnUse"><stop offset="0" stop-color="#ef7100"></stop><stop offset="1" stop-color="#faa21d"></stop></linearGradient>
</defs>
</svg>