<svg viewBox="0 0 18 18" class="" role="presentation" focusable="false" xmlns="http://www.w3.org/2000/svg" xmlns:xlink="http://www.w3.org/1999/xlink" id="FxSymbol0-019" data-type="350"><g><path fill="url(#85df33de-22eb-4b6e-a12b-d124856dd016)" d="M.549 2.636h16.912a.518.518 0 0 1 .539.489v11.75a.518.518 0 0 1-.539.489H.549A.528.528 0 0 1 0 14.875V3.145a.529.529 0 0 1 .548-.509z"></path><rect width="1.532" height="9.349" x="12.459" y="4.206" opacity=".9" rx=".147" class="msportalfx-svg-c01" fill="#ffffff"></rect><rect width="8.572" height="1.937" x="1.628" y="11.629" opacity=".6" rx=".159" class="msportalfx-svg-c01" fill="#ffffff"></rect><rect width="1.532" height="5.524" x="14.808" y="8.031" opacity=".9" rx=".113" class="msportalfx-svg-c01" fill="#ffffff"></rect><path d="m9.117 4.772-2.13 3.79-2.253-2.295-2.322 3.011.544.427 1.842-2.376 2.338 2.386L9.72 5.119l-.603-.347z" class="msportalfx-svg-c01" fill="#ffffff"></path><ellipse cx="4.761" cy="6.795" rx=".876" ry=".881" class="msportalfx-svg-c01" fill="#ffffff"></ellipse><ellipse cx="7.136" cy="8.979" rx=".876" ry=".881" class="msportalfx-svg-c01" fill="#ffffff"></ellipse><ellipse cx="9.341" cy="5.055" rx=".876" ry=".881" class="msportalfx-svg-c01" fill="#ffffff"></ellipse><ellipse cx="2.775" cy="9.363" rx=".876" ry=".881" class="msportalfx-svg-c01" fill="#ffffff"></ellipse></g><defs>
<linearGradient id="85df33de-22eb-4b6e-a12b-d124856dd016" x1="9" x2="9" y1="790.787" y2="774.125" gradientTransform="matrix(1 0 0 -1 0 791.516)" gradientUnits="userSpaceOnUse"><stop offset="0" stop-color="#6cc6b9"></stop><stop offset=".46" stop-color="#6ac4b7"></stop><stop offset=".64" stop-color="#62bdb0"></stop><stop offset=".77" stop-color="#56b1a4"></stop><stop offset="1" stop-color="#258277"></stop></linearGradient>
</defs>
</svg>